<?xml version="1.0" encoding="utf-8"?>
<!-- Generator: Adobe Illustrator 16.0.0, SVG Export Plug-In . SVG Version: 6.00 Build 0)  -->
<!DOCTYPE svg PUBLIC "-//W3C//DTD SVG 1.1//EN" "http://www.w3.org/Graphics/SVG/1.1/DTD/svg11.dtd">
<svg version="1.1" xmlns="http://www.w3.org/2000/svg" xmlns:xlink="http://www.w3.org/1999/xlink" x="0px" y="0px" width="128px"
	 height="128px" viewBox="-16 -16 128 128" enable-background="new -16 -16 128 128" xml:space="preserve">
	 
<g id="safety" display="none">
	<g display="inline">
		<path d="M76.516,15.553c-2.258,0.286-4.529,0.432-6.753,0.432c-0.002,0,0,0-0.002,0c-12.375,0-20-4.499-20.071-4.542
			c-0.995-0.604-2.451-0.603-3.44-0.001c-0.076,0.045-7.7,4.543-20.077,4.543c-2.222,0-4.494-0.146-6.754-0.432l-2.251-0.286v35.87
			c0.001,25.228,29.199,33.632,29.5,33.715c0.478,0.131,0.971,0.158,1.301,0.158s0.823-0.027,1.306-0.159
			c0.296-0.082,29.494-8.486,29.494-33.714v-35.87L76.516,15.553z M74.768,51.137c0,22.171-26.3,29.785-26.548,29.854
			c-0.043,0.01-0.478,0.005-0.486,0.005c-0.266-0.074-26.565-7.688-26.566-29.859V19.763c1.679,0.147,3.354,0.222,5.005,0.222
			c12.172,0,20.055-3.955,21.795-4.919c1.743,0.966,9.624,4.919,21.792,4.919c0.001,0,0.003,0,0.003,0
			c1.651,0,3.326-0.075,5.005-0.222V51.137z"/>
		<polygon points="49.567,31.137 46.368,31.137 46.368,43.937 33.568,43.937 33.568,47.137 46.368,47.137 46.368,59.937 
			49.567,59.937 49.567,47.137 62.367,47.137 62.367,43.937 49.567,43.937 		"/>
	</g>
</g>
<g id="save" display="none">
	<g display="inline">
		<path d="M79.168,14h-62.4c-1.544,0-2.8,1.256-2.8,2.8v62.4c0,1.544,1.256,2.8,2.8,2.8h62.4c1.543,0,2.799-1.256,2.799-2.8V16.8
			C81.967,15.256,80.711,14,79.168,14z M77.968,78h-60V18h60V78z"/>
		<polygon points="66.214,50.981 63.32,48.219 49.968,62.208 49.968,28 45.967,28 45.967,62.208 32.614,48.219 29.72,50.981 
			47.967,70.097 		"/>
	</g>
</g>
<g id="scan" display="none">
	<g display="inline">
		<polygon points="54.137,55 58.428,67.601 63.967,67.601 58.362,51.201 57.94,51.201 57.518,51.201 53.996,51.201 53.574,51.201 
			40.464,51.201 40.044,51.201 36.813,51.201 36.391,51.201 35.968,51.201 30.366,67.601 35.729,67.601 39.9,55 		"/>
		<path d="M72.367,80.4h-48.8V51.201h-4V81.6c0,1.544,1.256,2.801,2.8,2.801h51.2c1.544,0,2.8-1.257,2.8-2.801V51.201h-4V80.4z"/>
		<path d="M76.367,42.8V14.4c0-1.543-1.256-2.8-2.8-2.8h-51.2c-1.544,0-2.8,1.256-2.8,2.8v28.4h-6v3.6v0.4h68.8v-0.4v-3.6H76.367z
			 M23.567,15.6h48.8v27.2H55.491l-4.987-14.596l-0.093-0.271h-6.495L38.837,42.8h-15.27V15.6z M43.63,42.8l3.293-10.078h0.169
			L50.398,42.8H43.63z"/>
	</g>
</g>
<g id="schedule" display="none">
	<g display="inline">
		<polygon points="44.752,58.979 31.38,45.604 28.552,48.433 44.752,64.636 68.18,41.208 65.352,38.38 		"/>
		<path d="M82.768,23.2h-12v-4.8h-4v4.8h-37.6v-4.8h-4v4.8h-12c-1.544,0-2.8,1.256-2.8,2.8v48.8c0,1.544,1.256,2.8,2.8,2.8h69.6
			c1.543,0,2.8-1.256,2.8-2.8V26C85.567,24.456,84.311,23.2,82.768,23.2z M81.567,73.601h-67.2V27.2h10.8v5.6h4v-5.6h37.6v5.6h4
			v-5.6h10.8V73.601z"/>
	</g>
</g>
<g id="screen_x5F_capture" display="none">
	<g display="inline">
		<rect x="46.368" y="59.2" width="3.2" height="16"/>
		<rect x="46.368" y="20.8" width="3.2" height="16"/>
		<rect x="20.767" y="46.4" width="16" height="3.201"/>
		<rect x="59.167" y="46.4" width="16" height="3.201"/>
		<rect x="35.167" y="54.389" transform="matrix(-0.6983 -0.7158 0.7158 -0.6983 20.6371 125.4984)" width="3.201" height="8.021"/>
		<rect x="56.768" y="32.84" transform="matrix(0.7071 0.7071 -0.7071 0.7071 43.1171 -30.4937)" width="3.2" height="7.919"/>
		<rect x="32.807" y="35.2" transform="matrix(0.7071 0.7071 -0.7071 0.7071 36.7905 -15.2199)" width="7.92" height="3.2"/>
		<rect x="54.408" y="56.8" transform="matrix(-0.7071 -0.7071 0.7071 -0.7071 58.3449 140.967)" width="7.919" height="3.2"/>
		<path d="M14.367,24.8h13.6v-4h-14.8c-1.544,0-2.8,1.256-2.8,2.8v14.8h4V24.8z"/>
		<path d="M82.768,20.8h-14.8v4h13.6v13.6h4V23.6C85.567,22.056,84.311,20.8,82.768,20.8z"/>
		<path d="M14.367,57.6h-4V72.4c0,1.543,1.256,2.8,2.8,2.8h14.8v-4h-13.6V57.6z"/>
		<path d="M81.567,71.2h-13.6v4h14.8c1.543,0,2.8-1.257,2.8-2.8V57.6h-4V71.2z"/>
	</g>
</g>
<g id="search_x5F_find" display="none">
	<path display="inline" d="M83.675,80.879L63.458,60.663c4.479-5.135,7.202-11.839,7.202-19.172c0-16.1-13.1-29.198-29.201-29.198
		c-16.1,0-29.199,13.098-29.199,29.198c0,16.102,13.099,29.201,29.199,29.201c7.332,0,14.037-2.722,19.171-7.202l20.217,20.217
		L83.675,80.879z M16.26,41.491c0-13.895,11.304-25.198,25.199-25.198c13.896,0,25.201,11.304,25.201,25.198
		c0,13.896-11.305,25.202-25.201,25.202C27.564,66.693,16.26,55.388,16.26,41.491z"/>
</g>
<g id="security" display="none">
	<g display="inline">
		<path d="M47.967,35.137c-3.97,0-7.2,3.229-7.2,7.198c0,3.42,2.398,6.286,5.6,7.017v12.985h3.2V49.352
			c3.201-0.73,5.601-3.596,5.601-7.017C55.168,38.366,51.938,35.137,47.967,35.137z M47.967,46.337c-2.206,0-4-1.795-4-4.002
			c0-2.205,1.794-3.998,4-3.998s4,1.793,4,3.998C51.967,44.542,50.173,46.337,47.967,46.337z"/>
		<path d="M76.516,15.552c-2.26,0.287-4.533,0.432-6.755,0.432c-12.376,0.001-20-4.498-20.068-4.539
			c-0.996-0.608-2.453-0.608-3.449-0.001c-0.074,0.045-7.612,4.542-20.072,4.542c-2.221,0-4.494-0.146-6.753-0.432l-2.251-0.285
			v35.87c0,25.227,29.198,33.631,29.496,33.713c0.479,0.132,0.973,0.16,1.304,0.16c0.33,0,0.824-0.028,1.306-0.16
			c0.296-0.082,29.494-8.486,29.494-33.714v-35.87L76.516,15.552z M74.768,51.137c0,22.171-26.3,29.785-26.55,29.855
			c-0.043,0.01-0.472,0.006-0.484,0.004c-0.266-0.074-26.565-7.688-26.565-29.858V19.763c1.678,0.147,3.354,0.222,5.004,0.222
			c12.167,0,20.048-3.953,21.794-4.92c1.745,0.967,9.625,4.92,21.794,4.919c1.652,0,3.328-0.074,5.007-0.222V51.137z"/>
	</g>
</g>
<g id="select_x5F_all" display="none">
	<g display="inline">
		<path d="M50.173,34.8h7.598V62h-3.599v4H65.37v-4h-3.6V34.8h7.599v6h4v-7.657c0-1.292-1.016-2.343-2.264-2.343H48.439
			c-1.25,0-2.266,1.051-2.266,2.343V40.8h4V34.8z"/>
		<path d="M80.567,15.6H38.975c-1.544,0-2.8,1.256-2.8,2.8v59.2c0,1.544,1.256,2.801,2.8,2.801h41.592c1.544,0,2.8-1.257,2.8-2.801
			V18.4C83.367,16.856,82.111,15.6,80.567,15.6z M79.367,76.399H40.175V19.6h39.192V76.399z"/>
		<polygon points="12.567,27.63 19.378,27.63 19.378,71.97 23.378,71.97 23.378,27.63 30.188,27.63 30.188,23.63 12.567,23.63 		"/>
	</g>
</g>
<g id="select_x5F_language" display="none">
	<g display="inline">
		<path d="M60.043,15.792H35.859c-13.836,0.059-25.092,11.363-25.092,25.2c0,13.896,11.305,25.2,25.2,25.2h3.414v11.6
			c0,1.569,1.156,2.416,2.245,2.416c0.439,0,1.095-0.129,1.724-0.745l13.535-13.235c0.024-0.013,0.06-0.026,0.086-0.035h2.997
			c13.895,0,25.2-11.305,25.2-25.2C85.168,27.143,73.899,15.838,60.043,15.792z M59.968,62.192h-3.063
			c-0.968,0-2.081,0.454-2.77,1.129L43.381,73.838v-8.846c0-1.544-1.256-2.8-2.8-2.8h-4.614c-11.689,0-21.2-9.51-21.2-21.2
			c0-11.641,9.469-21.151,21.101-21.2h24.168c11.651,0.039,21.131,9.549,21.131,21.2C81.167,52.683,71.657,62.192,59.968,62.192z"/>
		<path d="M29.427,30.465l-6.508,19.232h3.825l1.222-4.144h6.852l1.251,4.144h3.851l-6.508-19.232H29.427z M28.92,42.366
			l2.472-8.367l2.497,8.367H28.92z"/>
		<path d="M52.96,39.55c1.647-0.638,2.471-1.833,2.471-3.586c0-1.752-0.531-3.108-1.594-4.064c-1.063-0.956-2.568-1.435-4.515-1.435
			h-6.933v19.232h7.808c2.001,0,3.556-0.504,4.662-1.514c1.107-1.01,1.661-2.435,1.661-4.277
			C56.521,41.71,55.333,40.259,52.96,39.55z M46.028,33.707h3.107c1.719,0,2.578,0.78,2.578,2.338c0,1.505-0.797,2.257-2.391,2.257
			h-3.294V33.707z M50.385,46.456h-4.357v-5.02h4.169c1.719,0,2.578,0.851,2.578,2.55C52.775,45.633,51.979,46.457,50.385,46.456z"
			/>
		<path d="M67.464,46.669c-3.523,0-5.285-2.152-5.285-6.455c0-2.16,0.429-3.834,1.287-5.02c0.857-1.187,2.076-1.78,3.651-1.78
			c1.417,0,2.816,0.346,4.197,1.036l1.25-2.789c-0.69-0.495-1.516-0.876-2.472-1.142c-0.955-0.266-1.931-0.398-2.921-0.398
			c-1.789,0-3.343,0.417-4.661,1.25c-1.321,0.832-2.334,2.027-3.042,3.584c-0.709,1.559-1.063,3.4-1.063,5.524
			c0,3.028,0.773,5.375,2.323,7.04c1.55,1.665,3.741,2.497,6.575,2.497c1.115,0,2.151-0.133,3.107-0.398
			c0.958-0.266,1.728-0.638,2.312-1.115l-1.248-2.763C70.43,46.358,69.093,46.669,67.464,46.669z"/>
	</g>
</g>
<g id="send_x5F_job" display="none">
	<path display="inline" d="M84.053,12.52c-0.593-0.89-1.781-1.228-2.892-0.764L13.04,40.273c-1.168,0.487-1.555,1.462-1.527,2.212
		c0.028,0.75,0.485,1.693,1.684,2.092l28.724,9.599l9.574,28.591c0.414,1.242,1.394,1.685,2.172,1.685
		c0.934,0,1.73-0.569,2.133-1.528l28.408-68.121C84.542,14.004,84.486,13.172,84.053,12.52z M18.753,42.217l56.321-23.577
		L43.351,50.438L18.753,42.217z M53.85,77.206L45.65,52.718c-0.005-0.014-0.011-0.025-0.016-0.039l31.69-31.763L53.85,77.206z"/>
</g>
<g id="send_x5F_message_x5F_01" display="none">
	<g display="inline">
		<polygon points="49.149,30.818 58.279,39.792 32.767,39.792 32.767,43.792 58.279,43.792 49.149,52.766 51.954,55.619 
			66.021,41.792 51.954,27.966 		"/>
		<path d="M60.043,15.792H35.859c-13.836,0.059-25.092,11.363-25.092,25.2c0,13.896,11.305,25.2,25.2,25.2h3.414v11.6
			c0,1.569,1.156,2.416,2.245,2.416c0.439,0,1.096-0.129,1.725-0.745l13.533-13.235c0.024-0.013,0.06-0.026,0.086-0.035h2.997
			c13.895,0,25.2-11.305,25.2-25.2C85.168,27.143,73.899,15.838,60.043,15.792z M59.968,62.192h-3.064
			c-0.967,0-2.08,0.454-2.769,1.129L43.381,73.838v-8.846c0-1.544-1.256-2.8-2.8-2.8h-4.614c-11.689,0-21.2-9.51-21.2-21.2
			c0-11.641,9.469-21.151,21.101-21.2h24.168c11.651,0.039,21.131,9.549,21.131,21.2C81.167,52.683,71.657,62.192,59.968,62.192z"/>
	</g>
</g>
<g id="share" display="none">
	<path display="inline" d="M69.395,61.24c-2.797,0-5.301,1.258-6.989,3.233l-27.01-14.318c0.219-0.786,0.345-1.609,0.345-2.465
		c0-0.809-0.116-1.59-0.313-2.338L62.34,31.454c1.688,2.018,4.223,3.305,7.055,3.305c5.072,0,9.199-4.127,9.199-9.2
		c0-5.073-4.127-9.2-9.199-9.2c-5.073,0-9.201,4.127-9.201,9.2c0,0.809,0.116,1.59,0.313,2.339L33.596,41.796
		c-1.688-2.018-4.224-3.306-7.055-3.306c-5.074,0-9.2,4.127-9.2,9.2c0,5.072,4.126,9.2,9.2,9.2c2.784,0,5.278-1.248,6.966-3.209
		l27.024,14.325c-0.214,0.777-0.338,1.59-0.338,2.434c0,5.073,4.128,9.2,9.201,9.2c5.072,0,9.199-4.127,9.199-9.2
		C78.594,65.368,74.467,61.24,69.395,61.24z M69.395,20.359c2.866,0,5.199,2.333,5.199,5.2c0,2.867-2.333,5.2-5.199,5.2
		c-2.868,0-5.2-2.333-5.2-5.2C64.194,22.692,66.526,20.359,69.395,20.359z M26.541,52.891c-2.868,0-5.2-2.333-5.2-5.2
		s2.333-5.2,5.2-5.2c2.867,0,5.2,2.333,5.2,5.2S29.408,52.891,26.541,52.891z M69.395,75.641c-2.868,0-5.2-2.333-5.2-5.2
		s2.332-5.2,5.2-5.2c2.866,0,5.199,2.333,5.199,5.2S72.261,75.641,69.395,75.641z"/>
</g>
<g id="shuffle" display="none">
	<path display="inline" d="M70.722,58.369l6.834,6.831h-5.119c-2.969,0-7.413-1.841-9.513-3.939L52.775,51.11
		c-1.29-1.289-2.347-2.358-3.097-3.124L62.924,34.74c2.1-2.098,6.544-3.939,9.513-3.939h5.117l-6.83,6.831l2.263,2.263L84.299,28.58
		L72.185,16.469l-2.263,2.263l8.07,8.068h-5.556c-4.054,0-9.474,2.246-12.34,5.112l-13.26,13.261l-14.86-14.861
		c-2.867-2.866-8.287-5.111-12.34-5.111h-8v4h8c2.968,0,7.412,1.842,9.511,3.94l14.846,14.847c-0.75,0.765-1.807,1.834-3.097,3.125
		L29.148,62.861c-2.1,2.098-6.544,3.938-9.512,3.938h-8v4h8c4.053,0,9.473-2.244,12.341-5.111L43.724,53.94
		c1.212-1.21,2.305-2.314,3.113-3.141c0.808,0.826,1.901,1.93,3.112,3.14l10.148,10.149c2.866,2.867,8.286,5.111,12.34,5.111h5.555
		l-8.067,8.068l2.263,2.263l12.112-12.114L72.984,56.106L70.722,58.369z"/>
</g>
<g id="signpost" display="none">
	<path display="inline" d="M85.594,24.408l-8.455-8.275C76.447,15.455,75.334,15,74.366,15H48.768c-1.544,0-2.801,1.256-2.801,2.8
		v0.8v15.6h-24.4c-0.982,0-2.103,0.471-2.788,1.172l-8.481,8.662c-1.078,1.103-1.06,2.878,0.042,3.959l8.457,8.277
		c0.69,0.676,1.803,1.13,2.77,1.13h24.4V81h4.001V38.2h24.398c0.981,0,2.102-0.471,2.788-1.172l8.48-8.659
		C86.716,27.267,86.698,25.491,85.594,24.408z M21.633,53.4c-0.027-0.009-0.062-0.023-0.087-0.035l-7.55-7.391l7.588-7.75
		c0.018-0.009,0.04-0.018,0.059-0.025h24.324V53.4H21.633z M74.35,34.175c-0.019,0.009-0.04,0.018-0.059,0.025H49.968V19h24.331
		c0.027,0.009,0.062,0.023,0.086,0.035l7.554,7.391L74.35,34.175z"/>
</g>
<g id="sim_x5F_card" display="none">
	<g display="inline">
		<path d="M60.768,34.4h-25.6c-2.647,0-4.8,2.153-4.8,4.8V69.6c0,2.647,2.153,4.801,4.8,4.801h25.6c2.646,0,4.8-2.153,4.8-4.801
			V39.2C65.567,36.553,63.414,34.4,60.768,34.4z M62.367,69.6c0,0.882-0.718,1.601-1.6,1.601h-4.8V60h-3.2v11.2h-9.6V60h-3.2v11.2
			h-4.8c-0.883,0-1.6-0.719-1.6-1.601V39.2c0-0.882,0.717-1.6,1.6-1.6h4.8v12h3.2v-12h9.6v12h3.2v-12h4.8c0.882,0,1.6,0.718,1.6,1.6
			V69.6z"/>
		<path d="M74.649,26.315L62.052,13.717C61.057,12.722,59.313,12,57.905,12H23.167c-1.985,0-3.6,1.615-3.6,3.6v64.8
			c0,1.984,1.615,3.6,3.6,3.6h49.6c1.985,0,3.6-1.615,3.6-3.6V30.461C76.367,29.053,75.645,27.31,74.649,26.315z M72.367,80h-48.8
			V16h34.338c0.347,0,1.074,0.301,1.318,0.545l12.598,12.599c0.245,0.245,0.546,0.97,0.546,1.316V80z"/>
	</g>
</g>
<g id="skip_x5F_silence" display="none">
	<g display="inline">
		<path d="M59.788,33.673c0-1.391-0.984-2.44-2.29-2.44c-0.565,0-1.116,0.207-1.596,0.599L41.638,43.505l-8.855-8.865l-2.83,2.826
			l8.411,8.42H28.196c-1.544,0-2.8,1.256-2.8,2.8v16.882c0,1.544,1.256,2.801,2.8,2.801l10.392-0.002
			c0.061,0.008,0.189,0.054,0.202,0.057l17.116,14.001c0.478,0.39,1.028,0.596,1.592,0.596c1.306,0,2.29-1.05,2.29-2.44V67.334
			l9.089,9.099l2.829-2.826L59.788,61.675V33.673z M55.789,37.093V57.67L44.478,46.347L55.789,37.093z M55.789,77.161l-14.46-11.828
			c-0.699-0.577-1.78-0.964-2.691-0.964h-9.242V49.886h9.242c0.907,0,1.986-0.384,2.685-0.958l0.044-0.035L55.789,63.33V77.161z"/>
		<path d="M75.84,18.161v8.373C69.036,18.066,58.692,12.98,47.654,12.98c-13.068,0-25.161,7.095-31.56,18.518l3.491,1.955
			c5.691-10.16,16.447-16.472,28.069-16.472c10.098,0,19.554,4.777,25.591,12.7h-8.909v4H79.84v-15.52H75.84z"/>
	</g>
</g>
<g id="smart_x5F_charm" display="none">
	<path display="inline" d="M56.318,32.161V12.8c0-1.517-1.234-2.751-2.751-2.751h-11.2c-1.517,0-2.75,1.234-2.75,2.751v19.361
		c-4.663,1.503-8.049,5.881-8.049,11.039v9.6c0,5.157,3.386,9.535,8.049,11.039V83.2c0,1.517,1.233,2.75,2.75,2.75h11.2
		c1.517,0,2.751-1.233,2.751-2.75V63.839c4.663-1.504,8.049-5.882,8.049-11.039v-9.6C64.367,38.042,60.981,33.665,56.318,32.161z
		 M52.417,13.951V31.6h-8.899V13.951H52.417z M43.518,82.05v-17.65h8.899v17.65H43.518z M60.367,52.8c0,4.19-3.409,7.601-7.6,7.601
		h-9.6c-4.191,0-7.6-3.41-7.6-7.601v-9.6c0-4.191,3.409-7.6,7.6-7.6h9.6c4.19,0,7.6,3.409,7.6,7.6V52.8z"/>
</g>
<g id="smart_x5F_control" display="none">
	<g display="inline">
		<path d="M57.629,36.978h-18.79c-2.98,0-5.406,2.425-5.406,5.407V79.88c0,2.981,2.425,5.406,5.406,5.406h18.79
			c2.979,0,5.405-2.425,5.405-5.406V42.384C63.034,39.403,60.608,36.978,57.629,36.978z M59.033,79.88
			c0,0.775-0.63,1.406-1.404,1.406h-18.79c-0.775,0-1.406-0.631-1.406-1.406V42.384c0-0.763,0.644-1.407,1.406-1.407h18.79
			c0.762,0,1.404,0.645,1.404,1.407V79.88z"/>
		<path d="M51.648,74.086h-7.362c-1.104,0-2,0.896-2,2s0.896,2,2,2h7.362c1.105,0,2-0.896,2-2S52.754,74.086,51.648,74.086z"/>
		<path d="M30.578,30.076l2.778,2.877c8.056-7.78,21.165-7.78,29.222,0l2.778-2.877C55.769,20.816,40.167,20.816,30.578,30.076z"/>
		<path d="M47.967,10.714c-9.907,0-19.22,3.905-26.223,10.995l2.847,2.811c6.245-6.323,14.547-9.806,23.376-9.806
			s17.131,3.482,23.377,9.806l2.846-2.811C67.187,14.619,57.875,10.714,47.967,10.714z"/>
	</g>
</g>
<g id="smart_x5F_view" display="none">
	<g display="inline">
		<path d="M81.768,18.424h-64c-1.543,0-2.8,1.256-2.8,2.8v14.4h4v-13.2h61.6v39.2h-61.6v-13.2h-4v14.399c0,1.544,1.256,2.8,2.8,2.8
			H47.19v3.2h-1.42l-21.814,4.849l0.868,3.904l21.385-4.753h0.981v0.019h4v-0.019h0.98l21.386,4.753l0.867-3.904l-21.814-4.849
			H51.19v-3.2h30.577c1.544,0,2.8-1.256,2.8-2.8v-41.6C84.567,19.68,83.312,18.424,81.768,18.424z"/>
		<polygon points="43.132,50.531 46.004,53.315 56.954,42.024 46.004,30.731 43.132,33.516 49.443,40.024 11.367,40.024 
			11.367,44.024 49.443,44.024 		"/>
	</g>
</g>
<g id="software_x5F_update" display="none">
	<g display="inline">
		<path d="M68.768,11.6h-41.6c-3.75,0-6.8,3.05-6.8,6.8v59.2c0,3.75,3.05,6.801,6.8,6.801h41.6c3.749,0,6.8-3.051,6.8-6.801V18.4
			C75.567,14.65,72.517,11.6,68.768,11.6z M71.567,77.6c0,1.544-1.256,2.801-2.8,2.801h-41.6c-1.544,0-2.8-1.257-2.8-2.801V18.4
			c0-1.543,1.256-2.8,2.8-2.8h41.6c1.544,0,2.8,1.256,2.8,2.8V77.6z"/>
		<path d="M57.846,34.913h2.872v-3.2h-9.601v8.872h3.2v-3.229c3.714,2.219,6.05,6.25,6.05,10.644c0,6.837-5.563,12.4-12.4,12.4
			s-12.4-5.563-12.4-12.4c0-5.692,3.849-10.636,9.359-12.024l-0.978-3.879C36.659,33.933,31.567,40.473,31.567,48
			c0,9.043,7.357,16.399,16.4,16.399c9.043,0,16.4-7.356,16.4-16.399C64.367,42.796,61.892,37.972,57.846,34.913z"/>
	</g>
</g>
<g id="sort_x5F_contact_x5F_list" display="none">
	<g display="inline">
		<path d="M41.735,43.6c8.162,0,14.8-6.639,14.8-14.8c0-8.161-6.639-14.8-14.8-14.8c-8.161,0-14.8,6.639-14.8,14.8
			C26.935,36.961,33.574,43.6,41.735,43.6z M41.735,18c5.956,0,10.8,4.845,10.8,10.8c0,5.956-4.845,10.8-10.8,10.8
			c-5.955,0-10.8-4.845-10.8-10.8C30.935,22.845,35.78,18,41.735,18z"/>
		<path d="M78.336,60.462c-0.415-0.79-1.237-1.262-2.2-1.262h-24c-0.966,0-1.789,0.474-2.203,1.267
			c-0.415,0.792-0.334,1.738,0.218,2.531l11.885,17.085c0.498,0.719,1.264,1.132,2.101,1.132c0.832,0,1.597-0.41,2.1-1.129
			l11.89-17.093C78.673,62.2,78.752,61.254,78.336,60.462z M64.136,76.099L55.163,63.2h17.946L64.136,76.099z"/>
		<path d="M21.335,72.844c0-10.464,9.533-19.644,20.4-19.644c3.508,0,7,0.942,10.097,2.726l1.995-3.466
			c-3.703-2.133-7.884-3.26-12.092-3.26c-12.998,0-24.4,11.048-24.4,23.644V79.2c0,1.544,1.256,2.8,2.8,2.8h32.8v-4H21.335V72.844z"
			/>
	</g>
</g>
<g id="sound_x5F_bar" display="none">
	<g display="inline">
		<rect x="43.967" y="46.384" width="8" height="3.231"/>
		<path d="M81.567,34h-67.2c-1.543,0-2.8,1.256-2.8,2.8v22.4c0,1.543,1.256,2.8,2.8,2.8h67.2c1.544,0,2.8-1.257,2.8-2.8V36.8
			C84.367,35.256,83.111,34,81.567,34z M80.367,58h-64.8V38h64.8V58z"/>
	</g>
</g>
<g id="sound_x5F_bar_x5F_surround" display="none">
	<g display="inline">
		<path d="M28.194,27.746l2.747,2.908C35.482,26.363,41.535,24,47.981,24c6.434,0,12.477,2.354,17.015,6.629l2.742-2.912
			C62.455,22.741,55.438,20,47.981,20C40.508,20,33.48,22.751,28.194,27.746z"/>
		<path d="M64.991,65.123c-4.548,4.292-10.607,6.655-17.062,6.655c-6.418,0-12.455-2.342-17-6.594l-2.733,2.921
			c5.289,4.947,12.295,7.673,19.732,7.673c7.48,0,14.514-2.751,19.807-7.746L64.991,65.123z"/>
		<path d="M47.981,13.6c8.982,0,17.426,3.477,23.775,9.791l2.82-2.837C67.473,13.49,58.027,9.6,47.981,9.6
			c-10.06,0-19.516,3.9-26.625,10.983l2.822,2.833C30.535,17.086,38.988,13.6,47.981,13.6z"/>
		<path d="M47.934,82.399c-8.966,0-17.405-3.464-23.759-9.754l-2.814,2.842C28.469,82.525,37.907,86.4,47.934,86.4
			c10.063,0,19.525-3.9,26.645-10.982l-2.821-2.836C65.394,78.913,56.933,82.399,47.934,82.399z"/>
		<rect x="43.967" y="46.4" width="8" height="3.201"/>
		<path d="M81.567,34h-67.2c-1.543,0-2.8,1.256-2.8,2.8v22.4c0,1.543,1.256,2.8,2.8,2.8h67.2c1.544,0,2.8-1.257,2.8-2.8V36.8
			C84.367,35.256,83.111,34,81.567,34z M80.367,58h-64.8V38h64.8V58z"/>
	</g>
</g>
<g id="sound_x5F_scence" display="none">
	<g display="inline">
		<path d="M79.168,12.2h-62.4c-1.544,0-2.8,1.256-2.8,2.8v62.4c0,1.544,1.256,2.8,2.8,2.8h31.2v-4h-30V66.091l18.737-17.672
			l7.971,7.798c0.327,0.321,0.616,0.603,0.634,0.62c0.05,0.048,0.105,0.085,0.16,0.126c0.027,0.021,0.052,0.044,0.081,0.063
			c0.049,0.032,0.104,0.056,0.156,0.082c0.042,0.021,0.083,0.047,0.125,0.064c0.083,0.032,0.17,0.056,0.257,0.076
			c0.012,0.003,0.023,0.008,0.036,0.011c0.5,0.1,1.036-0.029,1.437-0.388l2.069-2.027l14.721-14.428l5.723,5.353l2.187-2.337
			l-6.29-5.884c-0.94-0.875-2.395-0.857-3.308,0.043l-0.016,0.016c-0.005,0.004-0.01,0.007-0.015,0.011l-7.254,7.111l-8.927,8.749
			l-1.22-1.193l-6.813-6.666c-0.001-0.001-0.001-0.001-0.001-0.001l-0.027-0.026c-0.903-0.89-2.392-0.906-3.316-0.034l-0.026,0.025
			c0,0.001-0.001,0.001-0.002,0.002L17.967,61.691V16.2h60v29.2h3.999V15C81.967,13.457,80.711,12.2,79.168,12.2z"/>
		<path d="M69.822,50.2h-1.6v19.262c-1.322-0.991-2.956-1.585-4.729-1.585c-4.371,0-7.927,3.57-7.927,7.959
			c0,4.392,3.556,7.964,7.927,7.964c4.372,0,7.928-3.572,7.928-7.964c0-0.597-0.07-1.175-0.195-1.734h0.195V53.548
			c4.172,0.78,7.346,4.554,7.346,9.078h3.199C81.967,55.774,76.52,50.2,69.822,50.2z M63.494,80.6c-2.606,0-4.727-2.138-4.727-4.764
			c0-2.624,2.12-4.76,4.727-4.76c2.607,0,4.729,2.136,4.729,4.76C68.223,78.462,66.102,80.6,63.494,80.6z"/>
		<path d="M24.768,31c0,4.853,3.947,8.8,8.8,8.8s8.8-3.948,8.8-8.8c0-4.852-3.947-8.8-8.8-8.8S24.768,26.148,24.768,31z M39.167,31
			c0,3.088-2.513,5.6-5.6,5.6s-5.6-2.512-5.6-5.6s2.513-5.6,5.6-5.6S39.167,27.912,39.167,31z"/>
	</g>
</g>
<g id="source" display="none">
	<g display="inline">
		<path d="M82.967,22h-68.8c-1.544,0-2.8,1.256-2.8,2.8v12.164h4V26h66.4v44h-66.4V59.036h-4V71.2c0,1.543,1.256,2.8,2.8,2.8h68.8
			c1.543,0,2.8-1.257,2.8-2.8V24.8C85.767,23.256,84.51,22,82.967,22z"/>
		<polygon points="34.331,60.107 37.203,62.893 51.353,48.3 37.203,33.708 34.331,36.492 43.549,46 10.168,46 10.168,49.999 
			44.133,49.999 		"/>
	</g>
</g>
<g id="speaker_x5F_settings" display="none">
	<g display="inline">
		<path d="M81.264,64.967l-0.001-0.727l3.054-2.942c0.98-0.941,1.198-2.533,0.509-3.701l-3.307-5.615
			c-0.534-0.908-1.579-1.495-2.659-1.495c-0.263,0-0.521,0.035-0.767,0.102l-4.187,1.138c-0.199-0.138-0.534-0.409-0.727-0.598
			l-1.017-3.864c-0.348-1.31-1.583-2.26-2.938-2.26h-6.637c-1.359,0-2.595,0.954-2.938,2.265l-1.072,4.079
			c-0.237,0.105-0.662,0.263-0.873,0.323l-2.198-0.598V14.204c0-1.23-0.725-1.967-1.403-2.247c-0.68-0.279-1.714-0.266-2.581,0.608
			L31.545,32.735c-0.021,0.01-0.045,0.021-0.067,0.028h-17.97c-1.544,0-2.8,1.256-2.8,2.8v21.283c0,1.544,1.256,2.801,2.8,2.801
			h17.971c0.021,0.007,0.046,0.017,0.065,0.026l19.979,20.17c0.537,0.543,1.179,0.827,1.817,0.827c0.278,0,0.555-0.054,0.822-0.163
			c0.829-0.341,1.345-1.138,1.345-2.078v-0.295l2.402-0.651c0.195,0.136,0.533,0.409,0.727,0.599l1.017,3.863
			c0.347,1.309,1.583,2.26,2.938,2.26h6.636c1.354,0,2.59-0.951,2.937-2.265l1.076-4.078c0.233-0.105,0.661-0.263,0.871-0.325
			l3.982,1.083c0.246,0.067,0.504,0.103,0.765,0.103c0.001,0,0.001,0,0.001,0c1.078,0,2.123-0.586,2.662-1.497l3.308-5.618
			c0.687-1.172,0.466-2.762-0.509-3.695L81.264,64.967z M31.552,55.646H14.708V36.763h16.845c0.976,0,2.094-0.466,2.783-1.161
			l17.172-17.336V50.87c-0.497,0.259-0.931,0.636-1.212,1.112L46.989,57.6c-0.688,1.171-0.469,2.762,0.508,3.697l3.057,2.946v0.725
			l-3.055,2.942c-0.393,0.378-0.657,0.863-0.795,1.383L34.34,56.811C33.653,56.114,32.533,55.646,31.552,55.646z M78.441,74.569
			l-3.562-0.969c-0.212-0.058-0.44-0.087-0.678-0.087c-1.208,0-2.864,0.823-2.872,0.828c-0.898,0.456-1.676,1.423-1.934,2.406
			l-0.912,3.456h-5.153l-0.909-3.456c-0.357-1.358-2.25-2.572-2.459-2.702c-0.824-0.518-2.086-0.703-3.024-0.444l-3.565,0.968
			l-2.541-4.316l2.586-2.491c0.726-0.696,1.174-1.817,1.136-2.815v-0.683c0.038-0.996-0.41-2.117-1.135-2.813l-2.587-2.494
			l2.541-4.318l3.563,0.97c0.213,0.058,0.441,0.087,0.679,0.087c1.196,0,2.857-0.818,2.88-0.829c0.894-0.46,1.668-1.424,1.928-2.404
			l0.909-3.457h5.153l0.91,3.458c0.347,1.319,2.109,2.482,2.459,2.703c0.822,0.515,2.083,0.701,3.025,0.441l3.563-0.969l2.541,4.317
			l-2.591,2.497c-0.724,0.7-1.171,1.822-1.129,2.816l0.002,0.674c-0.041,0.997,0.406,2.117,1.133,2.815l2.587,2.494L78.441,74.569z"
			/>
		<path d="M65.908,56.604c-4.411,0-8,3.589-8,8s3.589,8.001,8,8.001c4.41,0,8-3.59,8-8.001S70.318,56.604,65.908,56.604z
			 M65.908,69.403c-2.647,0-4.801-2.152-4.801-4.8c0-2.646,2.153-4.8,4.801-4.8c2.646,0,4.8,2.153,4.8,4.8
			C70.708,67.251,68.555,69.403,65.908,69.403z"/>
	</g>
</g>
<g id="special_x5F_function" display="none">
	<g display="inline">
		<path d="M75.967,26.8h-6.8V20c0-1.544-1.256-2.8-2.8-2.8h-46.4c-1.544,0-2.8,1.256-2.8,2.8v46.4c0,1.543,1.256,2.8,2.8,2.8h6.8V76
			c0,1.544,1.256,2.8,2.8,2.8h46.399c1.544,0,2.801-1.256,2.801-2.8V29.6C78.768,28.056,77.511,26.8,75.967,26.8z M21.167,65.2v-44
			h44v5.6h-35.6c-1.544,0-2.8,1.256-2.8,2.8v35.6H21.167z M74.768,74.8h-44v-44h44V74.8z"/>
		<rect x="38.767" y="39.6" width="27.201" height="4"/>
		<rect x="38.767" y="50.8" width="27.201" height="4"/>
		<rect x="38.767" y="62" width="27.201" height="4"/>
	</g>
</g>
<g id="split_x5F_window" display="none">
	<g display="inline">
		<path d="M75.238,17.2H20.696c-1.671,0-3.031,1.36-3.031,3.032v21.776c0,1.671,1.36,3.031,3.031,3.031h54.542
			c1.671,0,3.031-1.36,3.031-3.031V20.231C78.27,18.56,76.909,17.2,75.238,17.2z M74.27,41.039H21.665V21.2H74.27V41.039z"/>
		<path d="M75.238,50.961H20.696c-1.671,0-3.031,1.36-3.031,3.031v21.776c0,1.671,1.36,3.031,3.031,3.031h54.542
			c1.671,0,3.031-1.36,3.031-3.031V53.992C78.27,52.321,76.909,50.961,75.238,50.961z M74.27,74.8H21.665V54.961H74.27V74.8z"/>
	</g>
</g>
<g id="sports" display="none">
	<path display="inline" d="M66.477,42.122c1.875-11.042-0.222-22.604-4.878-26.357l0.011-0.016c-0.02-0.014-0.039-0.027-0.059-0.041
		l-0.336-0.23l-0.009,0.013c-7.096-4.163-29.138,0.804-40.848,17.185l-0.001-0.001c-0.038,0.054-0.075,0.107-0.113,0.161l-0.069,0.1
		h0c-7.673,11.094-8.753,24.457-7.19,33.31c0.896,5.072,2.691,8.972,4.962,10.813l-0.011,0.016c0.015,0.01,0.028,0.02,0.043,0.029
		l0.349,0.24l0.009-0.013c1.569,0.919,3.881,1.395,6.657,1.395c5.901-0.001,13.898-2.146,21.32-6.711
		c3.477,5.913,9.905,9.894,17.248,9.894c11.029,0,20.002-8.971,20.002-19.996C83.564,51.871,76.129,43.538,66.477,42.122z
		 M59.104,18.89c2.484,1.988,4.728,9.646,3.908,18.91c-4.272-1.598-8.572-3.871-12.562-6.664c-3.949-2.766-7.529-6-10.481-9.438
		C48.22,17.855,56.184,17.17,59.104,18.89z M20.441,73.93c-1.136-0.934-2.676-3.615-3.517-8.38
		c-0.541-3.063-0.732-6.72-0.383-10.627c4.245,1.599,8.386,3.795,12.337,6.563c4.019,2.814,7.653,6.117,10.639,9.637
		C31.184,74.964,23.219,75.542,20.441,73.93z M43.155,69.239c-3.333-4.079-7.352-7.786-11.983-11.03
		c-4.489-3.145-9.218-5.605-14.076-7.345c0.962-5.242,2.945-10.717,6.392-15.688c3.553-5.032,8.134-8.841,12.848-11.582
		c3.28,3.957,7.332,7.675,11.82,10.818c4.525,3.168,9.438,5.717,14.308,7.444c-0.006,0.027-0.011,0.055-0.016,0.083
		c-10.511,0.58-18.884,9.315-18.884,19.971c0,2.252,0.38,4.416,1.07,6.438C44.143,68.658,43.649,68.954,43.155,69.239z
		 M47.564,61.911c0-4.093,1.557-7.819,4.092-10.652c2.604,2.912,4.069,6.7,4.069,10.653c0,3.945-1.465,7.732-4.067,10.647
		C49.121,69.729,47.564,66.002,47.564,61.911z M54.664,75.196c3.237-3.641,5.063-8.362,5.063-13.284
		c0-4.929-1.825-9.653-5.064-13.291c2.546-1.712,5.608-2.714,8.9-2.714c3.294,0,6.356,1.002,8.904,2.715
		c-3.241,3.64-5.066,8.364-5.066,13.289c0,4.919,1.825,9.642,5.064,13.283c-2.547,1.712-5.609,2.713-8.902,2.713
		C60.271,77.907,57.21,76.906,54.664,75.196z M75.472,72.558c-2.604-2.917-4.071-6.703-4.071-10.646
		c0-3.949,1.467-7.737,4.071-10.651c2.536,2.832,4.093,6.559,4.093,10.651C79.564,66.002,78.008,69.727,75.472,72.558z"/>
</g>
<g id="stand_x5F_by" display="none">
	<g display="inline">
		<path d="M79.968,18.424h-64c-1.543,0-2.8,1.256-2.8,2.8v41.6c0,1.544,1.256,2.8,2.8,2.8h30v3.2h-1.419l-21.815,4.849l0.869,3.904
			l21.385-4.753h0.98v0.019h4v-0.019h0.979l21.387,4.753l0.867-3.904l-21.814-4.849h-1.419v-3.2h30c1.544,0,2.8-1.256,2.8-2.8v-41.6
			C82.768,19.68,81.512,18.424,79.968,18.424z M78.768,61.624h-61.6v-39.2h61.6V61.624z"/>
		<circle cx="47.966" cy="41.624" r="3.2"/>
		<circle cx="33.566" cy="41.624" r="3.2"/>
		<circle cx="62.366" cy="41.624" r="3.2"/>
	</g>
</g>
<g id="start" display="none">
	<g display="inline">
		<rect x="45.968" y="29.987" width="4" height="35.999"/>
		<path d="M84.016,46.007L49.947,11.939c-1.057-1.057-2.903-1.057-3.959,0L11.921,46.004c-0.529,0.528-0.821,1.231-0.821,1.98
			c-0.001,0.749,0.291,1.452,0.819,1.981l34.069,34.07c0.528,0.528,1.23,0.817,1.979,0.817c0.748,0,1.451-0.289,1.979-0.818
			l34.07-34.07c0.527-0.528,0.817-1.231,0.817-1.979C84.835,47.237,84.544,46.534,84.016,46.007z M47.968,80.358L15.596,47.986
			l32.372-32.371L80.34,47.986L47.968,80.358z"/>
	</g>
</g>
<g id="start_x5F_at" display="none">
	<g display="inline">
		<polygon points="57.758,25.835 54.988,28.722 72.999,46 26.773,46 26.773,50 72.999,50 54.988,67.278 57.758,70.164 
			80.862,47.999 		"/>
		<rect x="15.073" y="20.8" width="4" height="54.4"/>
	</g>
</g>
<g id="start_x5F_pause" display="none">
	<g display="inline">
		<path d="M54.526,45.919L20.608,20.48c-0.465-0.349-0.993-0.533-1.528-0.533c-1.318,0-2.312,1.054-2.312,2.452v51.201
			c0,1.397,0.994,2.452,2.312,2.452c0.536,0,1.064-0.185,1.528-0.532l33.922-25.442c0.675-0.508,1.062-1.266,1.061-2.08
			C55.59,47.185,55.203,46.427,54.526,45.919z M20.767,70.399V25.6L50.633,48L20.767,70.399z"/>
		<rect x="63.967" y="20.8" width="4.001" height="54.4"/>
		<rect x="75.167" y="20.8" width="4.001" height="54.4"/>
	</g>
</g>
<g id="stop_x5F_01" display="none">
	<path display="inline" d="M75.967,78.8h-56c-1.544,0-2.8-1.256-2.8-2.8V20c0-1.544,1.256-2.8,2.8-2.8h56
		c1.544,0,2.801,1.256,2.801,2.8v56C78.768,77.544,77.511,78.8,75.967,78.8z M21.167,74.8h53.6V21.2h-53.6V74.8z"/>
</g>
<g id="stop_x5F_02" display="none">
	<g display="inline">
		<path d="M47.967,11.6c-20.071,0-36.4,16.329-36.4,36.4c0,20.071,16.329,36.4,36.4,36.4s36.4-16.329,36.4-36.4
			C84.367,27.929,68.038,11.6,47.967,11.6z M47.967,80.4c-17.865,0-32.4-14.534-32.4-32.4c0-17.865,14.535-32.4,32.4-32.4
			c17.866,0,32.4,14.535,32.4,32.4C80.367,65.866,65.833,80.4,47.967,80.4z"/>
		<path d="M65.567,36.399h-35.2c-0.949,0-1.769,0.463-2.194,1.239c-0.423,0.776-0.371,1.716,0.139,2.512l17.54,27.454
			c0.481,0.751,1.271,1.199,2.115,1.199c0.844,0,1.635-0.448,2.117-1.201L67.62,40.153c0.512-0.799,0.564-1.739,0.141-2.515
			C67.336,36.862,66.517,36.399,65.567,36.399z M47.967,63.485L33.219,40.399h29.497L47.967,63.485z"/>
	</g>
</g>
<g id="stopwatch" display="none">
	<g display="inline">
		<path d="M72.878,29.687l3.656-3.656l-2.827-2.829l-3.646,3.645C64.188,21.599,56.445,18.4,47.967,18.4
			c-18.306,0-33.2,14.894-33.2,33.2c0,18.307,14.894,33.2,33.2,33.2s33.2-14.894,33.2-33.2
			C81.167,43.208,78.031,35.539,72.878,29.687z M47.967,80.8c-16.101,0-29.2-13.099-29.2-29.2c0-16.1,13.099-29.2,29.2-29.2
			c16.101,0,29.2,13.1,29.2,29.2C77.167,67.701,64.068,80.8,47.967,80.8z"/>
		<rect x="39.167" y="11.2" width="17.6" height="4"/>
		<rect x="45.967" y="28" width="4" height="23.2"/>
	</g>
</g>
<g id="storage" display="none">
	<path display="inline" d="M84.362,48.332C83.9,27.975,67.592,11.667,47.17,11.205c-1.543,0-2.798,1.259-2.798,2.808v0.474
		c-18.293,1.239-32.8,16.506-32.8,35.109c0,19.409,15.791,35.199,35.199,35.199c18.887,0,34.34-14.951,35.161-33.638
		c0.615-0.085,1.197-0.361,1.634-0.809C84.097,49.806,84.379,49.09,84.362,48.332z M48.372,15.254
		c17.23,1,30.94,14.71,31.941,31.941h-16.12c-0.136-0.986-0.349-1.947-0.641-2.874c-0.037-0.121-0.081-0.237-0.12-0.356
		c-0.078-0.229-0.16-0.457-0.246-0.681c-2.063-5.448-6.715-9.539-12.483-10.837c-0.166-0.038-0.33-0.077-0.498-0.11
		c-0.195-0.038-0.391-0.074-0.589-0.105c-0.371-0.061-0.746-0.111-1.125-0.148c-0.04-0.004-0.079-0.012-0.119-0.016V15.254z
		 M46.386,36.018l0.033-0.001c0.091-0.002,0.181-0.008,0.271-0.014l0.034-0.002c0.016,0,0.031-0.002,0.047-0.002
		c5.604,0,10.424,3.412,12.5,8.268c0.037,0.089,0.068,0.182,0.104,0.272c0.114,0.286,0.223,0.575,0.318,0.869
		c0.089,0.282,0.166,0.569,0.238,0.858c0.028,0.114,0.062,0.225,0.087,0.34c0.188,0.851,0.299,1.733,0.322,2.64l0.013,0.49
		c-0.077,7.433-6.138,13.458-13.583,13.458c-7.493,0-13.589-6.101-13.589-13.599C33.182,42.229,39.072,36.225,46.386,36.018z
		 M46.771,80.796c-17.203,0-31.199-13.997-31.199-31.2c0-16.396,12.715-29.868,28.8-31.099v13.669
		c-8.567,1.175-15.191,8.541-15.191,17.429c0,9.703,7.891,17.598,17.59,17.598c9.161,0,16.704-7.042,17.514-15.998h13.646
		C77.096,67.659,63.438,80.796,46.771,80.796z"/>
</g>
<g id="storage_x5F_02" display="none">
	<g display="inline">
		<circle cx="31.967" cy="25.6" r="3.2"/>
		<path d="M73.567,15.6h-51.2c-1.544,0-2.8,1.256-2.8,2.8v14.4c0,1.544,1.256,2.8,2.8,2.8h51.2c1.544,0,2.8-1.256,2.8-2.8V18.4
			C76.367,16.856,75.111,15.6,73.567,15.6z M72.367,31.6h-48.8v-12h48.8V31.6z"/>
		<circle cx="31.967" cy="48" r="3.2"/>
		<path d="M73.567,38h-51.2c-1.544,0-2.8,1.256-2.8,2.8v14.4c0,1.544,1.256,2.8,2.8,2.8h51.2c1.544,0,2.8-1.256,2.8-2.8V40.8
			C76.367,39.256,75.111,38,73.567,38z M72.367,54h-48.8V42h48.8V54z"/>
		<circle cx="31.967" cy="70.4" r="3.2"/>
		<path d="M73.567,60.4h-51.2c-1.544,0-2.8,1.256-2.8,2.8V77.6c0,1.544,1.256,2.801,2.8,2.801h51.2c1.544,0,2.8-1.257,2.8-2.801
			V63.2C76.367,61.656,75.111,60.4,73.567,60.4z M72.367,76.399h-48.8v-12h48.8V76.399z"/>
	</g>
</g>
<g id="storage_x5F_card" display="none">
	<g display="inline">
		<path d="M73.567,13.2h-44.8c-1.544,0-2.8,1.256-2.8,2.8l0.001,28.752c-0.008,0.065-0.056,0.205-0.063,0.223l-5.399,6.749
			c-0.562,0.701-0.939,1.776-0.939,2.676V80c0,1.544,1.256,2.8,2.8,2.8h51.2c1.544,0,2.8-1.256,2.8-2.8V16
			C76.367,14.456,75.111,13.2,73.567,13.2z M72.367,78.8h-48.8l-0.001-24.353c0.008-0.065,0.056-0.204,0.063-0.223l5.398-6.749
			c0.562-0.701,0.94-1.776,0.94-2.676V17.2h42.4V78.8z"/>
		<rect x="35.167" y="25.6" width="3.2" height="12.8"/>
		<rect x="44.767" y="25.6" width="3.2" height="12.8"/>
		<rect x="54.367" y="25.6" width="3.2" height="12.8"/>
		<rect x="63.967" y="25.6" width="3.201" height="12.8"/>
	</g>
</g>
<g id="stt" display="none">
	<g display="inline">
		<path d="M78.875,22.6H39.674c-1.543,0-2.8,1.256-2.8,2.8v8.001h4V26.6h16.4v46.799h4V26.6h16.4v5.991h3.999V25.4
			C81.674,23.856,80.418,22.6,78.875,22.6z"/>
		<path d="M17.088,32.74l-2.828,2.829c3.589,3.588,5.566,8.358,5.566,13.431c0,5.074-1.977,9.845-5.566,13.433l2.828,2.828
			c4.345-4.343,6.737-10.117,6.737-16.261C23.826,42.858,21.434,37.083,17.088,32.74z"/>
		<path d="M21.612,27.614c5.714,5.713,8.862,13.308,8.862,21.387c0,8.079-3.147,15.673-8.862,21.384l2.828,2.83
			c6.471-6.467,10.034-15.066,10.034-24.214c0-9.147-3.563-17.747-10.034-24.215L21.612,27.614z"/>
	</g>
</g>
<g id="subway" display="none">
	<path display="inline" d="M74.414,63.096l1.417-11.088c0.685-5.354,0.685-14.066,0-19.42l-1.417-11.086
		c-0.788-6.178-6.496-11.204-12.724-11.204H34.773c-6.227,0-11.936,5.026-12.726,11.203l-1.417,11.087
		c-0.683,5.354-0.683,14.066,0,19.419l1.417,11.088c0.548,4.293,3.475,8.024,7.298,9.905l-9.756,9.894l2.847,2.809l11.298-11.456
		c0.344,0.03,0.691,0.052,1.038,0.052H61.69c0.096,0,0.19-0.012,0.286-0.015l11.262,11.419l2.848-2.809l-9.514-9.648
		C70.658,71.463,73.841,67.589,74.414,63.096z M70.447,22.008l1.417,11.087c0.227,1.773,0.372,3.938,0.44,6.216H50.232V14.298H61.69
		C65.903,14.298,69.913,17.829,70.447,22.008z M26.016,22.008c0.534-4.179,4.545-7.71,8.758-7.71h11.458v25.013H24.159
		c0.069-2.278,0.214-4.443,0.44-6.216L26.016,22.008z M26.016,62.588l-1.213-9.49h13.173v-4H24.359
		c-0.139-1.782-0.22-3.767-0.239-5.787h48.225c-0.021,2.02-0.101,4.005-0.24,5.787H58.488v4H71.66l-1.213,9.49
		c-0.534,4.179-4.544,7.71-8.757,7.71H34.773C30.561,70.298,26.549,66.767,26.016,62.588z"/>
</g>
<g id="surround" display="none">
	<g display="inline">
		<path d="M47.967,36.399c-6.396,0-11.6,5.204-11.6,11.6c0,6.396,5.204,11.601,11.6,11.601c6.395,0,11.6-5.204,11.6-11.601
			C59.567,41.603,54.362,36.399,47.967,36.399z M47.967,55.599c-4.191,0-7.601-3.408-7.601-7.6c0-4.19,3.41-7.6,7.601-7.6
			s7.6,3.409,7.6,7.6C55.567,52.19,52.158,55.599,47.967,55.599z"/>
		<path d="M30.528,30.611c-9.259,9.588-9.259,25.19,0,34.778l2.878-2.777c-7.78-8.057-7.78-21.166,0-29.221L30.528,30.611z"/>
		<path d="M24.973,24.624l-2.811-2.846C15.072,28.78,11.167,38.093,11.167,48s3.905,19.22,10.995,26.223l2.811-2.846
			C18.649,65.131,15.167,56.829,15.167,48S18.649,30.869,24.973,24.624z"/>
		<path d="M65.406,30.611l-2.878,2.779c7.78,8.056,7.78,21.165,0,29.221l2.878,2.777C74.666,55.801,74.666,40.199,65.406,30.611z"/>
		<path d="M73.772,21.777l-2.812,2.846c6.323,6.245,9.807,14.547,9.807,23.376s-3.483,17.131-9.807,23.377l2.812,2.846
			C80.862,67.22,84.768,57.907,84.768,48S80.862,28.78,73.772,21.777z"/>
	</g>
</g>
<g id="swap" display="none">
	<g display="inline">
		<path d="M83.368,63.025l-7.785,7.625V28.8c0-5.514-4.486-10-10-10H38.367v4h27.216c3.309,0,6,2.692,6,6v41.434l-7.816-7.656
			l-2.798,2.858l12.827,12.563l12.371-12.115L83.368,63.025z"/>
		<path d="M24.352,67.2V25.766l7.816,7.656l2.799-2.858L22.138,18.001L9.768,30.115l2.798,2.858l7.786-7.624V67.2
			c0,5.514,4.486,10,10,10h27.216v-4H30.352C27.042,73.2,24.352,70.509,24.352,67.2z"/>
	</g>
</g>
<g id="switch_x5F_camera" display="none">
	<g display="inline">
		<path d="M27.567,37.747v22.254c0,1.544,1.256,2.8,2.8,2.8h35.2c1.544,0,2.8-1.256,2.8-2.8V37.747c0-1.543-1.256-2.8-2.8-2.8
			h-8.427l-1.158-2.936c-0.46-1.165-1.702-2.01-2.954-2.01H42.906c-1.253,0-2.496,0.846-2.955,2.01l-1.159,2.937h-8.425
			C28.824,34.947,27.567,36.204,27.567,37.747z M31.567,38.947h7.786c1.252,0,2.494-0.845,2.953-2.009l1.161-2.937h9l1.159,2.939
			c0.461,1.163,1.703,2.007,2.953,2.007h7.787v19.854h-32.8V38.947z"/>
		<path d="M47.967,40.401c-4.19,0-7.6,3.409-7.6,7.6c0,4.19,3.409,7.6,7.6,7.6c4.191,0,7.6-3.409,7.6-7.6
			C55.567,43.81,52.158,40.401,47.967,40.401z M47.967,52.401c-2.427,0-4.4-1.975-4.4-4.4c0-2.426,1.973-4.4,4.4-4.4
			c2.426,0,4.4,1.974,4.4,4.4C52.367,50.427,50.394,52.401,47.967,52.401z"/>
		<path d="M15.567,48c0-12.171,6.858-23.284,17.6-28.812V28.8h4V12.4h-16.4v4h9.131C18.658,22.836,11.567,34.875,11.567,48
			c0,15.348,9.705,29.126,24.15,34.287l1.346-3.768C24.207,73.927,15.567,61.662,15.567,48z"/>
		<path d="M84.367,48.001c0-15.348-9.705-29.126-24.15-34.287l-1.346,3.767c12.857,4.594,21.496,16.858,21.496,30.52
			c0,12.172-6.857,23.284-17.6,28.811V67.2h-4V83.6h16.399v-3.999h-9.131C77.276,73.165,84.367,61.126,84.367,48.001z"/>
	</g>
</g>
<g id="switch_x5F_windows" display="none">
	<g display="inline">
		<path d="M80.768,38H57.967v-6c0-1.544-1.256-2.8-2.799-2.8h-40c-1.544,0-2.8,1.256-2.8,2.8v24c0,1.544,1.256,2.8,2.8,2.8h22.8v6
			c0,1.544,1.256,2.801,2.8,2.801h40c1.544,0,2.8-1.257,2.8-2.801v-24C83.567,39.256,82.312,38,80.768,38z M16.368,33.2h37.6v21.6
			h-37.6V33.2z M79.567,63.6h-37.6v-4.8h13.201c1.543,0,2.799-1.256,2.799-2.8V42h21.601V63.6z"/>
		<path d="M47.966,80.4c-10.181,0-19.716-4.814-25.798-12.8h8.999V63.6h-15.6V79.2h4v-8.462C26.416,79.272,36.841,84.4,47.966,84.4
			c9.682,0,18.794-3.759,25.659-10.582l-2.821-2.837C64.693,77.056,56.583,80.4,47.966,80.4z"/>
		<path d="M47.967,15.6c10.183,0,19.717,4.814,25.799,12.8h-8.999v4h15.6V16.8h-4v8.462C69.519,16.728,59.094,11.6,47.967,11.6
			c-9.68,0-18.791,3.756-25.655,10.578l2.819,2.837C31.242,18.944,39.352,15.6,47.967,15.6z"/>
	</g>
</g>
<g id="sync_x5F_connect" display="none">
	<g display="inline">
		<path d="M20.767,16.4h9.131C18.658,22.836,11.567,34.875,11.567,48c0,15.347,9.705,29.126,24.15,34.287l1.346-3.768
			C24.207,73.926,15.567,61.661,15.567,48c0-12.171,6.858-23.284,17.6-28.812V28.8h4V12.4h-16.4V16.4z"/>
		<path d="M84.367,48c0-15.348-9.705-29.126-24.15-34.286l-1.346,3.767C71.729,22.074,80.367,34.338,80.367,48
			c0,12.171-6.857,23.284-17.6,28.812V67.2h-4V83.6h16.399v-3.999h-9.13C77.276,73.163,84.367,61.124,84.367,48z"/>
	</g>
</g>
<g id="system_x5F_settings">
	<path d="M47.967,64c-8.822,0-16-7.178-16-16s7.178-16,16-16c8.823,0,16,7.178,16,16S56.79,64,47.967,64z M47.967,35.2
		c-7.058,0-12.8,5.742-12.8,12.8c0,7.058,5.742,12.8,12.8,12.8c7.058,0,12.8-5.742,12.8-12.8C60.768,40.942,55.025,35.2,47.967,35.2
		z"/>
	<path d="M55.027,84.4H40.908c-1.361,0-2.595-0.956-2.937-2.273l-2.456-9.541c-0.003-0.005-0.004-0.008-0.002-0.008l0-0.002
		l-2.516-1.459c-0.003-0.001-0.005-0.003-0.006-0.003l-9.456,2.633c-1.274,0.355-2.782-0.263-3.441-1.408l-7.062-12.282
		c-0.675-1.175-0.466-2.719,0.497-3.674l7.016-6.92c0.007-0.015,0.014-0.031,0.019-0.047v-2.833
		c-0.004-0.015-0.012-0.032-0.019-0.046l-7.012-6.917c-0.967-0.955-1.177-2.501-0.5-3.677l7.062-12.282
		c0.66-1.146,2.161-1.767,3.441-1.408l9.456,2.635l2.509-1.457c0.008-0.01,0.012-0.013,0.013-0.01l2.458-9.546
		c0.339-1.318,1.573-2.276,2.936-2.276h14.119c1.367,0,2.602,0.961,2.938,2.285l2.453,9.529c0.005,0.006,0.005,0.01,0.003,0.01
		l0.001,0.001l2.515,1.46c0.005,0.001,0.007,0.002,0.007,0.003l9.456-2.634c1.275-0.356,2.782,0.263,3.442,1.409l7.062,12.283
		c0.677,1.178,0.465,2.725-0.504,3.678l-7.009,6.914c-0.006,0.015-0.014,0.031-0.018,0.046l0.001,2.834
		c0.005,0.016,0.012,0.031,0.019,0.046l7.012,6.917c0.965,0.95,1.178,2.495,0.501,3.675L75.84,72.339
		c-0.532,0.92-1.575,1.513-2.659,1.513l0,0c-0.267,0-0.528-0.034-0.78-0.104l-9.458-2.633l-2.51,1.456
		c-0.01,0.008-0.012,0.008-0.012,0.009l-2.458,9.544C57.621,83.444,56.387,84.4,55.027,84.4z M41.658,80.4h12.617l2.294-8.905
		c0.249-0.964,0.996-1.919,1.871-2.394l2.47-1.433c0.83-0.518,2.07-0.7,3.02-0.434l8.819,2.457l6.315-10.986l-6.541-6.453
		c-0.707-0.697-1.169-1.831-1.151-2.82v-2.9c-0.021-0.951,0.441-2.087,1.149-2.786l6.541-6.453l-6.316-10.985l-8.821,2.458
		c-0.939,0.264-2.183,0.081-3.015-0.432l-2.473-1.436c-0.873-0.476-1.621-1.43-1.869-2.391L54.273,15.6H41.658l-2.293,8.907
		c-0.249,0.962-0.995,1.916-1.871,2.393l-2.472,1.436c-0.832,0.513-2.067,0.697-3.019,0.431l-8.817-2.457L16.87,37.295l6.542,6.452
		c0.704,0.694,1.167,1.826,1.151,2.817v2.902c0.016,0.96-0.447,2.091-1.151,2.786l-6.542,6.453l6.316,10.984l8.823-2.456
		c0.946-0.264,2.185-0.081,3.014,0.433l2.472,1.435c0.875,0.477,1.623,1.433,1.871,2.396L41.658,80.4z"/>
</g>
<g id="tag" display="none">
	<g display="inline">
		<path d="M74.312,25.978l-14.813-13.33c-0.696-0.627-1.794-1.048-2.731-1.048h-17.6c-0.938,0-2.035,0.421-2.733,1.048
			l-14.811,13.33c-0.751,0.676-1.256,1.811-1.256,2.822v52.8c0,1.544,1.256,2.801,2.8,2.801h49.6c1.544,0,2.8-1.257,2.8-2.801V28.8
			C75.567,27.789,75.063,26.654,74.312,25.978z M71.567,80.4h-47.2V28.892c0.002,0,0.003-0.002,0.005-0.006l14.684-13.22
			c0.039-0.025,0.137-0.063,0.112-0.066l17.53-0.004c0.046,0.007,0.146,0.044,0.126,0.026L71.566,28.89
			c-0.001,0-0.001,0.003,0.001,0.007V80.4z"/>
		<path d="M47.967,21.6c-3.97,0-7.2,3.23-7.2,7.2c0,3.97,3.229,7.2,7.2,7.2s7.201-3.23,7.201-7.2
			C55.168,24.83,51.938,21.6,47.967,21.6z M47.967,32.8c-2.206,0-4-1.794-4-4c0-2.205,1.794-4,4-4s4,1.794,4,4
			C51.967,31.005,50.173,32.8,47.967,32.8z"/>
	</g>
</g>
<g id="temperature_x5F_01" display="none">
	<g display="inline">
		<path d="M36.17,43c1.194,0,4.176-0.153,6.074-1.567l0.489-0.363l-1.406-3.623l-0.805,0.456c-1.372,0.777-2.734,1.139-4.284,1.139
			c-4.565,0-7.185-3.229-7.185-8.858c0-5.526,2.686-8.825,7.185-8.825c1.528,0,2.789,0.35,4.215,1.169L41.277,23l1.348-3.676
			l-0.478-0.356C40.25,17.553,37.334,17.4,36.17,17.4c-7.015,0-11.203,4.779-11.203,12.783C24.967,38.208,29.155,43,36.17,43z"/>
		<path d="M23.767,17.401c0-2.868-2.333-5.201-5.2-5.201s-5.2,2.333-5.2,5.201c0,2.867,2.333,5.199,5.2,5.199
			S23.767,20.268,23.767,17.401z M18.567,19.4c-1.103,0-2-0.897-2-1.999c0-1.104,0.897-2.001,2-2.001c1.103,0,2,0.897,2,2.001
			C20.567,18.503,19.67,19.4,18.567,19.4z"/>
		<path d="M57.768,51.4c-2.867,0-5.2,2.332-5.2,5.199c0,2.868,2.333,5.2,5.2,5.2s5.2-2.332,5.2-5.2
			C62.968,53.732,60.635,51.4,57.768,51.4z M57.768,58.601c-1.104,0-2-0.897-2-2.001c0-1.103,0.896-2,2-2s2,0.897,2,2
			C59.768,57.703,58.871,58.601,57.768,58.601z"/>
		<polygon points="82.567,62.2 82.567,58.2 66.567,58.2 66.567,83.8 70.567,83.8 70.567,73.399 80.167,73.399 80.167,69.4 
			70.567,69.4 70.567,62.2 		"/>
		<rect x="11.167" y="46" transform="matrix(0.7071 -0.7071 0.7071 0.7071 -19.3747 48.4251)" width="75.201" height="3.199"/>
	</g>
</g>
<g id="temperature_x5F_02" display="none">
	<g display="inline">
		<path d="M49.567,59.798V22.4c0-0.883-0.716-1.6-1.6-1.6c-0.883,0-1.6,0.717-1.6,1.6v37.397c-2.983,0.721-5.2,3.4-5.2,6.604
			c0,3.755,3.044,6.8,6.8,6.8c3.755,0,6.8-3.045,6.8-6.8C54.768,63.197,52.549,60.518,49.567,59.798z"/>
		<path d="M58.295,51.606V21.152c0-5.708-4.632-10.352-10.328-10.352c-5.695,0-10.329,4.644-10.329,10.352v30.472
			c-5.074,3.424-8.071,9.004-8.071,15.131c0,10.171,8.262,18.445,18.417,18.445c10.136,0,18.382-8.22,18.382-18.322
			C66.367,60.775,63.302,55.026,58.295,51.606z M47.985,81.2c-7.95,0-14.417-6.48-14.417-14.445c0-5.069,2.634-9.662,7.05-12.284
			l1.021-0.573V21.152c0-3.502,2.839-6.352,6.329-6.352c3.489,0,6.329,2.85,6.329,6.352V53.84l0.979,0.581
			c4.375,2.598,7.093,7.371,7.093,12.457C62.367,74.775,55.915,81.2,47.985,81.2z"/>
	</g>
</g>
<g id="tethering" display="none">
	<g display="inline">
		<path d="M68.654,20.313c-5.409-5.41-12.783-8.296-20.743-8.104l0.111,4.798c6.638-0.151,12.766,2.227,17.239,6.699
			c4.474,4.474,6.853,10.596,6.7,17.24l4.798,0.111C76.942,33.09,74.064,25.722,68.654,20.313z"/>
		<path d="M59.164,40.947l4.798,0.109c0.101-4.35-1.467-8.367-4.411-11.311c-3.163-3.164-7.556-4.848-12.439-4.736l0.109,4.798
			c3.512-0.068,6.708,1.103,8.936,3.331C58.194,35.176,59.234,37.876,59.164,40.947z"/>
		<path d="M51.086,43.117c1.445-1.446,1.447-3.79,0-5.239c-1.446-1.444-3.79-1.442-5.236,0.003c-1.444,1.445-1.446,3.788,0,5.233
			C47.297,44.562,49.643,44.563,51.086,43.117z"/>
		<path d="M59.968,79h-36V23h18.396v-4.8H22.368c-1.765,0-3.2,1.436-3.2,3.2V80.6c0,1.765,1.436,3.2,3.2,3.2h39.2
			c1.765,0,3.2-1.436,3.2-3.2V47h-4.8V79z"/>
	</g>
</g>
<g id="text" display="none">
	<path display="inline" d="M74.367,19.6h-52.8c-1.543,0-2.8,1.256-2.8,2.8v8.8h4v-7.6h23.2v52.799h4V23.6h23.2v7.6h3.999v-8.8
		C77.167,20.856,75.911,19.6,74.367,19.6z"/>
</g>
<g id="text_x5F_l" display="none">
	<g display="inline">
		<path d="M79.66,74.274l-7.153-11.448c-0.405-0.644-1.07-1.028-1.78-1.028c-0.711,0-1.376,0.387-1.78,1.031l-7.154,11.446
			c-0.422,0.676-0.46,1.462-0.105,2.103c0.355,0.64,1.043,1.022,1.84,1.022h14.4c0.796,0,1.484-0.383,1.84-1.022
			C80.122,75.736,80.082,74.951,79.66,74.274z M65.613,74.2l5.114-8.182l5.113,8.182H65.613z"/>
		<path d="M70.327,22.6v7.6h3.999v-8.8c0-1.543-1.256-2.8-2.799-2.8h-52.8c-1.543,0-2.8,1.256-2.8,2.8v8.8h4v-7.6h23.2v52.8h4V22.6
			H70.327z"/>
	</g>
</g>
<g id="text_x5F_s" display="none">
	<g display="inline">
		<path d="M47.131,27.501h17.6v5.899h4v-7.1c0-1.544-1.256-2.8-2.8-2.8h-43.2c-1.544,0-2.8,1.256-2.8,2.8v7.9h4v-6.7h19.2v40.559h-6
			v4h16v-4h-6V27.501z"/>
		<path d="M75.776,58.674c-0.349-0.652-1.038-1.041-1.845-1.041h-14.4c-0.806,0-1.496,0.389-1.846,1.041
			c-0.349,0.649-0.291,1.44,0.154,2.109l7.116,10.725c0.417,0.63,1.064,0.991,1.775,0.991s1.357-0.361,1.775-0.991l7.115-10.724
			C76.068,60.114,76.126,59.323,75.776,58.674z M66.731,68.397l-5.018-7.564H71.75L66.731,68.397z"/>
	</g>
</g>
<g id="theme" display="none">
	<path display="inline" d="M25.967,10v40.674c0,1.294,0.994,2.382,2.305,2.578c7.714,2.023,11.381,3.615,12.671,7.605
		c0.986,3.045,0.166,6.397-0.704,9.946c-0.231,0.943-0.459,1.877-0.652,2.799l-0.08,0.382c-0.07,0.329-0.14,0.657-0.201,0.984
		c-0.173,0.709-0.261,1.419-0.261,2.113c0,2.382,0.927,4.621,2.613,6.307C43.344,85.073,45.584,86,47.967,86
		c4.919,0,8.921-4,8.921-8.917c0-0.688-0.088-1.401-0.262-2.117c-0.062-0.326-0.131-0.654-0.201-0.984l-0.08-0.381
		c-0.192-0.919-0.421-1.854-0.65-2.795c-0.87-3.55-1.691-6.902-0.703-9.95c1.289-3.987,4.955-5.58,12.669-7.604
		c1.313-0.196,2.306-1.284,2.306-2.578V10H25.967z M36.768,14v18.8h3.2V14h6.398v18.8h3.2V14h6.398v18.8h3.199V14h6.804v25.608h-36
		V14H36.768z M51.187,59.623c-1.338,4.128-0.296,8.381,0.623,12.134c0.22,0.897,0.438,1.786,0.62,2.661l0.084,0.396
		c0.067,0.314,0.135,0.626,0.19,0.936l0.026,0.122c0.105,0.421,0.159,0.829,0.159,1.211c0,2.712-2.208,4.917-4.922,4.917
		c-1.315,0-2.551-0.512-3.481-1.441c-0.929-0.929-1.441-2.163-1.44-3.476c0-0.386,0.053-0.791,0.156-1.201l0.028-0.133
		c0.057-0.309,0.124-0.62,0.189-0.934l0.084-0.397c0.183-0.876,0.401-1.765,0.622-2.662c0.919-3.753,1.961-8.006,0.624-12.131
		c-1.955-6.048-7.575-8.141-14.781-10.063v-5.955h36v5.954C58.761,51.484,53.141,53.577,51.187,59.623z"/>
</g>
<g id="timer_x5F_alarm" display="none">
	<g display="inline">
		<path d="M37.567,65.6v8.001h20.8V65.6c0-5.745-4.656-10.399-10.4-10.399S37.567,59.854,37.567,65.6z"/>
		<path d="M67.704,30.808V18h6.663v-4h-52.8v4h6.802v12.808c0,7.321,3.97,13.806,10.111,17.192
			c-6.141,3.387-10.111,9.872-10.111,17.193V78h-6.802v4h52.8v-4h-6.663V65.192c0-7.32-3.97-13.806-10.112-17.192
			C63.734,44.614,67.704,38.128,67.704,30.808z M52.836,45.707v2.291v0.004v2.29c6.459,2.063,10.868,8.017,10.868,14.9V78H32.369
			V65.193c0-6.859,4.377-12.799,10.798-14.882v-4.624c-6.421-2.082-10.798-8.021-10.798-14.88V18h31.335v12.808
			C63.704,37.691,59.295,43.645,52.836,45.707z"/>
	</g>
</g>
<g id="tools_x5F_option_x5F_quick" display="none">
	<g display="inline">
		<path d="M79.168,14h-62.4c-1.544,0-2.8,1.256-2.8,2.8v48.472h4V18h60v60H31.137v4h48.031c1.543,0,2.799-1.256,2.799-2.8V16.8
			C81.967,15.256,80.711,14,79.168,14z"/>
		<polygon points="45.967,67.2 49.968,67.2 49.968,46 28.768,46 28.768,50 43.139,50 16.954,76.186 19.781,79.015 45.967,52.828 		
			"/>
		<rect x="28.768" y="30" width="38.4" height="4"/>
	</g>
</g>
<g id="traffic_x5F_lights" display="none">
	<g display="inline">
		<path d="M47.967,44.4c6.396,0,11.6-5.204,11.6-11.6s-5.204-11.6-11.6-11.6s-11.6,5.204-11.6,11.6S41.571,44.4,47.967,44.4z
			 M47.967,25.2c4.191,0,7.6,3.409,7.6,7.6c0,4.191-3.409,7.6-7.6,7.6c-4.19,0-7.6-3.409-7.6-7.6
			C40.368,28.609,43.777,25.2,47.967,25.2z"/>
		<path d="M47.967,74.8c6.396,0,11.6-5.204,11.6-11.6c0-6.396-5.204-11.601-11.6-11.601s-11.6,5.204-11.6,11.601
			C36.367,69.596,41.571,74.8,47.967,74.8z M47.967,55.601c4.191,0,7.6,3.408,7.6,7.6c0,4.19-3.409,7.6-7.6,7.6
			c-4.19,0-7.6-3.409-7.6-7.6C40.368,59.009,43.777,55.601,47.967,55.601z"/>
		<path d="M82.469,28.757c0.657-0.694,1.099-1.802,1.099-2.758v-1.6c0-1.544-1.256-2.8-2.8-2.8H69.167V14.4
			c0-1.543-1.256-2.8-2.8-2.8h-36.8c-1.544,0-2.8,1.256-2.8,2.8v7.199h-11.6c-1.544,0-2.8,1.256-2.8,2.8v1.6
			c0,0.956,0.441,2.064,1.099,2.757l13.301,14.041v9.202h-11.6c-1.544,0-2.8,1.256-2.8,2.8v1.601c0,0.954,0.441,2.063,1.099,2.758
			l13.301,14.04V81.6c0,1.544,1.256,2.801,2.8,2.801h36.8c1.544,0,2.8-1.257,2.8-2.801v-8.402L82.47,59.156
			c0.657-0.693,1.098-1.802,1.098-2.757v-1.601c0-1.544-1.256-2.8-2.8-2.8H69.167v-9.203L82.469,28.757z M79.567,25.599v0.34
			c-0.01,0.034-0.028,0.08-0.044,0.111L69.167,36.981V25.599H79.567z M16.412,26.05c-0.017-0.032-0.035-0.078-0.044-0.111v-0.339
			h10.399v11.382L16.412,26.05z M16.412,56.45c-0.017-0.031-0.035-0.078-0.044-0.111v-0.34h10.399v11.382L16.412,56.45z
			 M65.167,80.4H30.768V15.6h34.399V80.4z M79.567,55.999v0.34c-0.01,0.033-0.028,0.08-0.045,0.112l-10.355,10.93V55.999H79.567z"/>
	</g>
</g>
<g id="translator_x5F_01" display="none">
	<g display="inline">
		<path d="M79.204,46.584c-4.36-4.361-10.158-6.763-16.324-6.762v4c5.098,0,9.891,1.985,13.496,5.591s5.591,8.399,5.591,13.498
			c0,10.525-8.562,19.088-19.087,19.089c-5.099,0-9.894-1.986-13.5-5.592c-3.606-3.604-5.591-8.397-5.59-13.495
			c0-5.001,1.909-9.708,5.382-13.287l0.211-0.212c4.362-4.361,6.765-10.16,6.765-16.326C56.147,20.357,45.788,10,33.055,10
			C20.324,10.001,9.967,20.358,9.967,33.089c0,6.167,2.402,11.965,6.764,16.326c4.361,4.36,10.156,6.762,16.321,6.762
			c0,0,0.002,0,0.003,0l-0.001-4c-0.001,0-0.001,0-0.002,0c-5.095,0-9.887-1.985-13.492-5.59c-3.606-3.606-5.592-8.4-5.592-13.498
			C13.967,22.563,22.53,14,33.055,14c10.528,0,19.092,8.563,19.092,19.088c0,5-1.911,9.708-5.388,13.29l-0.208,0.208
			c-4.361,4.36-6.763,10.159-6.763,16.328c0,6.165,2.401,11.963,6.763,16.324C50.914,83.599,56.712,86,62.88,86
			c12.73-0.001,23.088-10.358,23.088-23.089C85.968,56.744,83.565,50.946,79.204,46.584z"/>
		<path d="M32.767,19.747l-9.855,21.588l2.911,1.329l2.312-5.064H37.4l2.312,5.064l2.911-1.329L32.767,19.747z M29.596,34.399
			l3.171-6.947l3.172,6.947H29.596z"/>
		<path d="M55.992,54.757h-3.458v3.199h3.837c0.389,1.87,1.402,5.287,3.959,8.928c-1.738,2.016-4.06,4.03-7.171,5.754l1.55,2.8
			c3.255-1.802,5.746-3.888,7.658-6.001c1.913,2.113,4.404,4.199,7.658,6.001l1.551-2.8c-3.119-1.729-5.443-3.734-7.181-5.739
			c2.563-3.647,3.578-7.069,3.968-8.942H72.2v-3.199h-3.458h-1.594h-3.182v-4.084h-3.199v4.084h-3.182H55.992z M65.076,57.956
			c-0.374,1.471-1.157,3.733-2.723,6.2c-1.568-2.468-2.342-4.729-2.706-6.2H65.076z"/>
	</g>
</g>
<g id="translator_x5F_02" display="none">
	<g display="inline">
		<path d="M79.205,46.584c-4.361-4.361-10.159-6.763-16.323-6.762v4c5.097,0,9.889,1.985,13.494,5.591
			c3.605,3.606,5.591,8.399,5.591,13.498c0,10.525-8.562,19.088-19.087,19.089c-5.099,0-9.894-1.986-13.499-5.592
			c-3.606-3.604-5.591-8.397-5.591-13.495c0-5.003,1.91-9.711,5.386-13.292l0.207-0.206c4.362-4.36,6.765-10.159,6.765-16.327
			C56.147,20.357,45.788,10,33.055,10C20.324,10.001,9.967,20.358,9.967,33.089c0,6.167,2.402,11.965,6.764,16.326
			c4.361,4.36,10.156,6.762,16.321,6.762c0,0,0.002,0,0.003,0l0-4c-0.001,0-0.002,0-0.002,0c-5.096,0-9.888-1.985-13.493-5.59
			c-3.606-3.606-5.592-8.4-5.592-13.498C13.967,22.563,22.53,14,33.055,14c10.528,0,19.092,8.563,19.092,19.088
			c0,5-1.91,9.706-5.383,13.285l-0.212,0.212c-4.362,4.361-6.763,10.16-6.763,16.328c0,6.165,2.402,11.963,6.763,16.324
			C50.914,83.599,56.712,86,62.88,86c12.73-0.001,23.088-10.358,23.088-23.089C85.968,56.744,83.565,50.946,79.205,46.584z"/>
		<path d="M32.768,19.747l-9.855,21.588l2.911,1.329l2.312-5.064h9.266l2.312,5.064l2.911-1.329L32.768,19.747z M29.596,34.399
			l3.172-6.947l3.172,6.947H29.596z"/>
		<polygon points="66.368,51.199 66.368,73.599 69.568,73.599 69.568,64 73.968,64 73.968,60.8 69.568,60.8 69.568,51.199 		"/>
		<path d="M53.112,68.647l1.712,2.703c8.572-5.429,9.503-15.201,9.538-15.614l0.148-1.737H53.968v3.2h6.892
			C60.214,59.954,58.327,65.344,53.112,68.647z"/>
	</g>
</g>
<g id="tts" display="none">
	<g display="inline">
		<path d="M55.168,22.6h-39.2c-1.544,0-2.8,1.256-2.8,2.8v8.001h4V26.6h16.559v46.799h4V26.6h16.241v5.991h3.999V25.4
			C57.967,23.856,56.711,22.6,55.168,22.6z"/>
		<path d="M64.971,32.375l-2.805,2.852c3.74,3.681,5.802,8.573,5.802,13.774c0,5.201-2.062,10.093-5.802,13.774l2.805,2.852
			c4.513-4.439,6.997-10.345,6.997-16.626C71.968,42.718,69.483,36.814,64.971,32.375z"/>
		<path d="M72.732,24.786l-2.827,2.829c5.715,5.713,8.862,13.308,8.862,21.387c0,8.079-3.147,15.673-8.862,21.384l2.827,2.83
			c6.471-6.467,10.035-15.066,10.035-24.214S79.203,31.254,72.732,24.786z"/>
	</g>
</g>
<g id="tutorial" display="none">
	<g display="inline">
		<path d="M75.967,13.2h-56c-1.544,0-2.8,1.256-2.8,2.8v64c0,1.544,1.256,2.8,2.8,2.8h56c1.544,0,2.801-1.256,2.801-2.8V16
			C78.768,14.456,77.511,13.2,75.967,13.2z M21.167,17.2h6.4v61.6h-6.4V17.2z M74.768,78.8h-43.2V17.2h43.2V78.8z"/>
		<path d="M45.567,38.651c0-1.725,0.667-3.347,1.88-4.566c1.208-1.215,2.813-1.885,4.52-1.885c3.529,0,6.4,2.895,6.4,6.451
			c0,1.725-0.667,3.348-1.879,4.567c-0.181,0.182-0.406,0.387-0.663,0.62c-1.901,1.73-5.857,5.331-5.857,11.716h4
			c0-4.618,2.738-7.109,4.55-8.758c0.313-0.285,0.588-0.537,0.809-0.759c1.962-1.975,3.041-4.598,3.041-7.386
			c0-5.763-4.665-10.451-10.4-10.451c-2.778,0-5.392,1.088-7.357,3.065c-1.962,1.974-3.042,4.597-3.042,7.386H45.567z"/>
		<circle cx="51.967" cy="65.8" r="3.2"/>
	</g>
</g>
<g id="tv_x5F_dlna" display="none">
	<g display="inline">
		<path d="M17.567,44.399h24c1.544,0,2.8-1.256,2.8-2.8v-24c0-1.543-1.256-2.8-2.8-2.8h-24c-1.544,0-2.8,1.256-2.8,2.8v24
			C14.767,43.143,16.023,44.399,17.567,44.399z M18.768,18.799h21.6v21.6h-21.6V18.799z"/>
		<path d="M80.367,50.325h-28c-1.544,0-2.8,1.256-2.8,2.8v18.399c0,1.544,1.256,2.801,2.8,2.801h12v2.121l-8.285,2.091l0.979,3.879
			l8.601-2.171h1.413l8.6,2.171l0.979-3.879l-8.285-2.091v-2.121h12c1.544,0,2.8-1.257,2.8-2.801V53.125
			C83.167,51.581,81.911,50.325,80.367,50.325z M79.168,70.325H53.567v-16h25.601V70.325z"/>
		<path d="M66.367,46.399c9.264,0,16.8-7.533,16.8-16.793c0-9.268-7.536-16.807-16.8-16.807c-9.263,0-16.8,7.54-16.8,16.807
			C49.567,38.866,57.104,46.399,66.367,46.399z M66.367,16.799c7.059,0,12.801,5.745,12.801,12.807
			c0,7.054-5.742,12.793-12.801,12.793c-7.058,0-12.8-5.739-12.8-12.793C53.567,22.544,59.31,16.799,66.367,16.799z"/>
		<path d="M29.567,49.601c-9.264,0-16.8,7.533-16.8,16.793c0,9.268,7.536,16.808,16.8,16.808s16.8-7.54,16.8-16.808
			C46.368,57.134,38.832,49.601,29.567,49.601z M29.567,79.2c-7.058,0-12.8-5.745-12.8-12.807c0-7.054,5.742-12.793,12.8-12.793
			s12.8,5.739,12.8,12.793C42.367,73.455,36.625,79.2,29.567,79.2z"/>
	</g>
</g>
<g id="undo" display="none">
	<path display="inline" d="M79.98,70.831c-0.165-22.018-18.115-39.929-40.012-39.929H23.607l11.215-11.177l-2.824-2.833
		L15.953,32.884l16.012,16.025l2.83-2.827l-11.171-11.18h16.345c19.708,0,35.863,16.131,36.012,35.961
		c0.002,0.251,0.002,8.147,0.002,8.245h4C79.982,75.377,79.982,70.908,79.98,70.831z"/>
</g>
<g id="unlock" display="none">
	<g display="inline">
		<path d="M75.167,38.8h-44.8v-6.001c0-9.483,7.755-17.198,17.289-17.198c2.722,0,5.328,0.611,7.743,1.816l1.786-3.579
			c-2.975-1.485-6.182-2.237-9.529-2.237c-11.739,0-21.289,9.51-21.289,21.198V38.8h-5.6c-1.543,0-2.8,1.256-2.8,2.8v40
			c0,1.544,1.256,2.801,2.8,2.801h54.4c1.544,0,2.801-1.257,2.801-2.801v-40C77.968,40.056,76.711,38.8,75.167,38.8z M73.968,80.4
			h-52V42.8h52V80.4z"/>
		<path d="M46.368,62.989V74.4h3.2V62.989c2.756-0.714,4.8-3.214,4.8-6.189c0-3.528-2.871-6.399-6.4-6.399s-6.4,2.871-6.4,6.399
			C41.567,59.775,43.612,62.275,46.368,62.989z M47.967,53.6c1.765,0,3.2,1.436,3.2,3.2c0,1.766-1.435,3.2-3.2,3.2
			c-1.765,0-3.2-1.435-3.2-3.2C44.767,55.035,46.203,53.6,47.967,53.6z"/>
	</g>
</g>
<g id="up" display="none">
	<polygon display="inline" points="76.192,42.651 47.967,14.005 19.743,42.651 22.592,45.458 45.967,21.734 45.967,81.995 
		49.968,81.995 49.968,21.734 73.342,45.458 	"/>
</g>
<g id="upper_x5F_folder" display="none">
	<g display="inline">
		<path d="M81.167,26.8H48.894l-7.375-8.683C40.85,17.33,39.708,16.8,38.675,16.8H14.767c-1.543,0-2.8,1.256-2.8,2.8v56.799
			c0,1.544,1.256,2.801,2.8,2.801h66.4c1.544,0,2.801-1.257,2.801-2.801V29.6C83.968,28.056,82.711,26.8,81.167,26.8z M79.968,75.2
			h-64V20.8h22.582l7.376,8.685c0.667,0.787,1.809,1.316,2.842,1.316h31.2V75.2z"/>
		<path d="M54.957,48.02L43.333,36.363l-11.584,11.66l2.837,2.819l6.768-6.812l0.001,12.711c0,5.986,4.924,10.856,10.977,10.856
			h10.436V63.6H52.332c-3.848,0-6.977-3.076-6.977-6.857l-0.002-12.687l6.771,6.79L54.957,48.02z"/>
	</g>
</g>
<g id="usb_x5F_01" display="none">
	<g display="inline">
		<rect x="42.367" y="19.2" width="3.2" height="8"/>
		<rect x="50.367" y="19.2" width="3.2" height="8"/>
		<path d="M66.367,30h-3.6V13.6c0-1.544-1.257-2.8-2.8-2.8h-24c-1.543,0-2.8,1.256-2.8,2.8V30h-3.6c-1.544,0-2.8,1.256-2.8,2.8v49.6
			c0,1.544,1.256,2.801,2.8,2.801h36.8c1.544,0,2.8-1.257,2.8-2.801V32.8C69.167,31.256,67.911,30,66.367,30z M37.167,14.8h21.6V30
			h-21.6V14.8z M65.167,81.2H30.768V34h5.2h24h5.199V81.2z"/>
	</g>
</g>
<g id="usb_x5F_02" display="none">
	<path display="inline" d="M68.367,29.787h-8.5v8.472h2.65v7.142c0,1.154-0.936,2.686-1.962,3.215l-10.988,5.655V23.859h5.2
		L47.964,12l-6.798,11.859h5.202v36.157l-10.157-4.812c-1.026-0.487-1.96-1.965-1.96-3.099v-8.17
		c2.041-0.664,3.517-2.574,3.517-4.83c0-2.809-2.285-5.083-5.1-5.083c-2.819,0-5.1,2.275-5.1,5.083c0,2.244,1.458,4.144,3.483,4.818
		v8.182c0,2.351,1.665,4.98,3.791,5.99l11.527,5.461v7.085c-2.983,0.718-5.202,3.387-5.202,6.579c0,3.744,3.045,6.778,6.801,6.778
		c3.755,0,6.8-3.034,6.8-6.778c0-3.192-2.219-5.861-5.2-6.578V57.869l12.452-6.408c2.073-1.067,3.698-3.729,3.698-6.06v-7.142h2.649
		V29.787z"/>
</g>
<g id="video_x5F_01" display="none">
	<g display="inline">
		<path d="M79.968,13.2h-64c-1.543,0-2.8,1.256-2.8,2.8v64c0,1.544,1.256,2.8,2.8,2.8h64c1.544,0,2.8-1.256,2.8-2.8V16
			C82.768,14.456,81.512,13.2,79.968,13.2z M78.768,78.8h-61.6V17.2h61.6V78.8z"/>
		<path d="M36.32,67.275c0.484,0,0.97-0.148,1.406-0.431l25.856-16.731c0.745-0.482,1.19-1.271,1.19-2.113
			c0-0.841-0.445-1.631-1.19-2.114L37.725,29.155c-0.435-0.282-0.92-0.431-1.405-0.431c-1.341,0-2.353,1.064-2.353,2.476v33.6
			C33.967,66.211,34.979,67.275,36.32,67.275z M37.967,34.076L59.485,48L37.967,61.924V34.076z"/>
		<rect x="23.167" y="28.8" width="3.2" height="4.8"/>
		<rect x="23.167" y="40" width="3.2" height="4.8"/>
		<rect x="23.167" y="62.4" width="3.2" height="4.8"/>
		<rect x="23.167" y="51.2" width="3.2" height="4.8"/>
		<rect x="69.567" y="28.8" width="3.2" height="4.8"/>
		<rect x="69.567" y="40" width="3.2" height="4.8"/>
		<rect x="69.567" y="62.4" width="3.2" height="4.8"/>
		<rect x="69.567" y="51.2" width="3.2" height="4.8"/>
	</g>
</g>
<g id="video_x5F_02" display="none">
	<path display="inline" d="M64.848,72.4h-52.48c-1.543,0-2.8-1.257-2.8-2.801V26.4c0-1.543,1.256-2.8,2.8-2.8h52.48
		c1.543,0,2.799,1.256,2.799,2.8v9.8l11.681-8.023c0.701-0.481,1.742-0.805,2.592-0.805h1.648c1.544,0,2.8,1.256,2.8,2.8v35.657
		c0,1.544-1.256,2.8-2.8,2.8h-1.648c-0.851,0-1.893-0.323-2.592-0.804l-11.681-8.024V69.6C67.646,71.144,66.391,72.4,64.848,72.4z
		 M13.567,68.4h50.08V56.8c0-1.405,1.004-2.465,2.337-2.465c0.502,0,1.006,0.162,1.453,0.469l14.154,9.725
		c0.059,0.031,0.261,0.094,0.352,0.102h0.424V31.373h-0.448c-0.065,0.007-0.269,0.07-0.349,0.116l-14.132,9.708
		c-1.1,0.755-2.562,0.536-3.301-0.455c-0.321-0.43-0.49-0.962-0.49-1.541V27.6h-50.08V68.4z"/>
</g>
<g id="video_x5F_call" display="none">
	<g display="inline">
		<path d="M83.567,27.373h-1.648c-0.85,0-1.891,0.323-2.592,0.805L67.646,36.2v-9.8c0-1.543-1.256-2.8-2.799-2.8h-52.48
			c-1.543,0-2.8,1.256-2.8,2.8v43.2c0,1.544,1.256,2.801,2.8,2.801h52.48c1.543,0,2.799-1.257,2.799-2.801v-9.799l11.681,8.024
			c0.699,0.48,1.741,0.804,2.592,0.804h1.648c1.544,0,2.8-1.256,2.8-2.8V30.172C86.367,28.629,85.111,27.373,83.567,27.373z
			 M82.367,64.63h-0.424c-0.091-0.008-0.293-0.07-0.352-0.102l-14.154-9.725c-0.447-0.307-0.951-0.469-1.453-0.469
			c-1.333,0-2.337,1.06-2.337,2.465V68.4h-50.08V27.6h50.08v11.6c0,0.578,0.169,1.111,0.49,1.541
			c0.739,0.991,2.201,1.21,3.301,0.455l14.132-9.708c0.08-0.045,0.283-0.109,0.349-0.116h0.448V64.63z"/>
		<circle cx="26.367" cy="48" r="3.2"/>
		<circle cx="38.367" cy="48" r="3.2"/>
		<path d="M50.368,44.8c-1.768,0-3.2,1.434-3.2,3.2c0,1.767,1.433,3.2,3.2,3.2c1.765,0,3.2-1.434,3.2-3.2
			C53.568,46.234,52.133,44.8,50.368,44.8z"/>
	</g>
</g>
<g id="video_x5F_play_x5F_list" display="none">
	<g display="inline">
		<path d="M80.367,56.047l-27.449-17.54c-0.434-0.277-0.916-0.423-1.396-0.423c-1.343,0-2.355,1.065-2.355,2.477v35.2
			c0,1.412,1.013,2.479,2.355,2.479c0.48,0,0.963-0.147,1.395-0.424l27.448-17.536c0.755-0.479,1.204-1.271,1.204-2.115
			C81.57,57.318,81.12,56.526,80.367,56.047z M53.166,72.911V43.413l23.084,14.75L53.166,72.911z"/>
		<rect x="14.365" y="17.761" width="64.001" height="4"/>
		<rect x="14.365" y="44.961" width="19.2" height="4"/>
		<rect x="14.365" y="72.161" width="19.2" height="4"/>
	</g>
</g>
<g id="view_x5F_mode" display="none">
	<g display="inline">
		<path d="M41.567,14.8h-24c-1.544,0-2.8,1.256-2.8,2.8v24c0,1.543,1.256,2.8,2.8,2.8h24c1.544,0,2.8-1.256,2.8-2.8v-24
			C44.367,16.056,43.111,14.8,41.567,14.8z M40.368,40.4h-21.6V18.8h21.6V40.4z"/>
		<path d="M78.367,14.8h-24c-1.543,0-2.8,1.256-2.8,2.8v24c0,1.543,1.257,2.8,2.8,2.8h24c1.544,0,2.8-1.256,2.8-2.8v-24
			C81.167,16.056,79.911,14.8,78.367,14.8z M77.167,40.4h-21.6V18.8h21.6V40.4z"/>
		<path d="M41.567,51.6h-24c-1.544,0-2.8,1.257-2.8,2.801v24c0,1.543,1.256,2.8,2.8,2.8h24c1.544,0,2.8-1.257,2.8-2.8v-24
			C44.367,52.856,43.111,51.6,41.567,51.6z M40.368,77.2h-21.6v-21.6h21.6V77.2z"/>
		<path d="M78.367,51.6h-24c-1.543,0-2.8,1.257-2.8,2.801v24c0,1.543,1.257,2.8,2.8,2.8h24c1.544,0,2.8-1.257,2.8-2.8v-24
			C81.167,52.856,79.911,51.6,78.367,51.6z M77.167,77.2h-21.6v-21.6h21.6V77.2z"/>
	</g>
</g>
<g id="view_x5F_mode_x5F_grid" display="none">
	<g display="inline">
		<path d="M41.567,14.8h-24c-1.544,0-2.8,1.256-2.8,2.8v24c0,1.543,1.256,2.8,2.8,2.8h24c1.544,0,2.8-1.256,2.8-2.8v-24
			C44.367,16.056,43.111,14.8,41.567,14.8z M40.368,40.4h-21.6V18.8h21.6V40.4z"/>
		<path d="M78.367,14.8h-24c-1.543,0-2.8,1.256-2.8,2.8v24c0,1.543,1.257,2.8,2.8,2.8h24c1.544,0,2.8-1.256,2.8-2.8v-24
			C81.167,16.056,79.911,14.8,78.367,14.8z M77.167,40.4h-21.6V18.8h21.6V40.4z"/>
		<path d="M41.567,51.6h-24c-1.544,0-2.8,1.257-2.8,2.801v24c0,1.543,1.256,2.8,2.8,2.8h24c1.544,0,2.8-1.257,2.8-2.8v-24
			C44.367,52.856,43.111,51.6,41.567,51.6z M40.368,77.2h-21.6v-21.6h21.6V77.2z"/>
		<path d="M78.367,51.6h-24c-1.543,0-2.8,1.257-2.8,2.801v24c0,1.543,1.257,2.8,2.8,2.8h24c1.544,0,2.8-1.257,2.8-2.8v-24
			C81.167,52.856,79.911,51.6,78.367,51.6z M77.167,77.2h-21.6v-21.6h21.6V77.2z"/>
	</g>
</g>
<g id="view_x5F_mode_x5F_list" display="none">
	<g display="inline">
		<rect x="36.367" y="18.8" width="43.2" height="4"/>
		<rect x="36.367" y="45.962" width="43.2" height="4"/>
		<rect x="36.367" y="73.2" width="43.2" height="4"/>
		<rect x="16.368" y="18.8" width="9.6" height="4"/>
		<rect x="16.368" y="45.962" width="9.6" height="4"/>
		<rect x="16.368" y="73.2" width="9.6" height="4"/>
	</g>
</g>
<g id="view_x5F_web" display="none">
	<path display="inline" d="M77.567,27.6h-9.2v-9.2c0-1.543-1.256-2.8-2.8-2.8h-47.2c-1.543,0-2.8,1.256-2.8,2.8v47.2
		c0,1.544,1.256,2.801,2.8,2.801h9.2V77.6c0,1.544,1.256,2.801,2.8,2.801h47.2c1.544,0,2.8-1.257,2.8-2.801V30.4
		C80.367,28.856,79.111,27.6,77.567,27.6z M19.567,19.6h44.8v44.799h-44.8V19.6z M76.367,76.399h-44.8V68.4h34
		c1.544,0,2.8-1.257,2.8-2.801v-34h8V76.399z"/>
</g>
<g id="voice_x5F_mail" display="none">
	<path display="inline" d="M68.367,30.8c-9.484,0-17.2,7.716-17.2,17.2c0,5.299,2.412,10.042,6.192,13.2H38.576
		c3.779-3.158,6.191-7.901,6.191-13.2c0-9.484-7.715-17.2-17.2-17.2c-9.484,0-17.2,7.716-17.2,17.2c0,9.484,7.716,17.2,17.2,17.2
		c0.405,0,0.802-0.033,1.2-0.061V65.2h37.6v-0.127c0.657,0.076,1.323,0.127,2,0.127c9.484,0,17.2-7.716,17.2-17.2
		C85.567,38.516,77.852,30.8,68.367,30.8z M14.367,48c0-7.278,5.922-13.2,13.2-13.2s13.2,5.922,13.2,13.2s-5.922,13.2-13.2,13.2
		S14.367,55.278,14.367,48z M68.367,61.2c-7.278,0-13.199-5.922-13.199-13.2s5.921-13.2,13.199-13.2s13.2,5.922,13.2,13.2
		S75.646,61.2,68.367,61.2z"/>
</g>
<g id="voice_x5F_off" display="none">
	<g display="inline">
		<path d="M77.382,75.786L66.943,65.349c3.876-4.568,6.225-10.486,6.225-16.949h-4.001c0,5.359-1.9,10.278-5.058,14.115l-4.539-4.54
			c1.997-2.896,3.197-6.498,3.197-10.413V24.637c0-11.838-10.933-11.838-15.6-11.838c-4.668,0-15.6,0-15.6,11.838v5.335
			L21.381,19.786l-2.828,2.829l13.014,13.014v11.934c0,9.505,6.999,17.238,15.6,17.238c3.693,0,7.084-1.433,9.76-3.811l4.37,4.37
			c-3.826,3.235-8.755,5.189-14.13,5.189c-12.131,0-22-9.937-22-22.149h-4c0,14.42,11.664,26.148,26,26.148
			c6.478,0,12.407-2.399,16.963-6.355l10.423,10.422L77.382,75.786z M35.567,24.637c0-5.787,3.036-7.837,11.6-7.837
			c8.565,0,11.6,2.051,11.6,7.837v22.925c0,2.798-0.771,5.394-2.075,7.535L35.567,33.972V24.637z M47.167,60.8
			c-6.396,0-11.6-5.938-11.6-13.238v-7.934l18.527,18.528C52.159,59.808,49.766,60.8,47.167,60.8z"/>
		<rect x="36.768" y="79.2" width="20.8" height="4"/>
	</g>
</g>
<g id="voice_x5F_rec" display="none">
	<g display="inline">
		<path fill="#020202" d="M36.596,58.431c3.318,2.03,7.21,3.2,11.37,3.2l0,0h0l0,0c12.103,0,21.948-9.901,21.948-22.07h-4
			c0,9.964-8.051,18.07-17.948,18.07c-3.401,0-6.584-0.958-9.298-2.62c-5.18-3.172-8.647-8.912-8.647-15.45l0,0h-4l0,0
			C26.021,47.546,30.259,54.556,36.596,58.431z"/>
		<path fill="#020202" d="M47.966,53.529c7.336,0,13.304-6.579,13.304-14.665V19.814c0-10.176-9.322-10.176-13.304-10.176
			c-3.98,0-13.302,0-13.302,10.176v19.051C34.664,46.951,40.631,53.529,47.966,53.529z M38.664,19.814
			c0-4.618,2.347-6.177,9.302-6.177c6.957,0,9.304,1.559,9.304,6.177v19.051c0,5.88-4.174,10.664-9.304,10.664
			c-5.128,0-9.302-4.784-9.302-10.664V19.814z"/>
		<path fill="#020202" d="M39.629,77.363c0.541-0.934,0.812-2.092,0.812-3.475c0-1.867-0.496-3.316-1.488-4.352
			c-0.99-1.033-2.386-1.55-4.186-1.55h-6.126v18.1h3.351v-6.301h1.85l3.65,6.302h4.024l-4.25-6.725
			C38.299,78.963,39.086,78.297,39.629,77.363z M34.768,76.962h-2.775v-6.075h2.675c1.565,0,2.349,1.017,2.349,3.05
			C37.016,75.954,36.268,76.962,34.768,76.962z"/>
		<polygon fill="#020202" points="46.866,78.312 52.266,78.312 52.266,75.337 46.866,75.337 46.866,70.937 54.24,70.937 
			54.24,67.987 43.518,67.987 43.518,86.087 54.617,86.087 54.617,83.137 46.866,83.137 		"/>
		<path fill="#020202" d="M63.94,83.337c-3.1,0-4.647-2.059-4.647-6.176c0-2.065,0.378-3.666,1.137-4.8
			c0.758-1.133,1.828-1.699,3.211-1.699c1.117,0,2.352,0.325,3.7,0.975l1.076-2.5c-0.616-0.466-1.342-0.825-2.177-1.075
			c-0.832-0.25-1.69-0.375-2.574-0.375c-1.616,0-3.011,0.392-4.188,1.175c-1.175,0.783-2.075,1.904-2.7,3.363
			c-0.623,1.458-0.938,3.187-0.938,5.187c0,2.851,0.693,5.055,2.076,6.613c1.383,1.56,3.341,2.338,5.876,2.338
			c1.015,0,1.941-0.125,2.774-0.375c0.833-0.251,1.5-0.601,2-1.051l-1.1-2.475C66.351,83.046,65.176,83.337,63.94,83.337z"/>
	</g>
</g>
<g id="volume_x5F_global" display="none">
	<path display="inline" d="M82.154,73.833H13.355c-1.332,0-2.052-0.797-2.282-1.542c-0.229-0.746-0.083-1.81,1.017-2.56l69.078-47.1
		c0.447-0.304,0.948-0.465,1.449-0.465c1.333,0,2.339,1.061,2.339,2.467v46.4C84.955,72.577,83.698,73.833,82.154,73.833z
		 M19.04,69.834h61.916V27.617L19.04,69.834z"/>
</g>
<g id="volume_x5F_sound" display="none">
	<g display="inline">
		<path d="M53.729,13.587c-0.447,0-1.114,0.134-1.745,0.773l-19.979,20.17c-0.02,0.01-0.045,0.021-0.065,0.028H13.967
			c-1.544,0-2.8,1.256-2.8,2.8v21.283c0,1.544,1.256,2.8,2.8,2.8h17.971c0.02,0.007,0.045,0.017,0.064,0.027L51.98,81.638
			c0.633,0.641,1.301,0.775,1.748,0.775c0,0,0,0,0.001,0c0.777,0,1.483-0.403,1.889-1.078c0.232-0.387,0.35-0.837,0.35-1.335V16
			C55.968,14.433,54.814,13.587,53.729,13.587z M51.967,75.939L34.799,58.607c-0.688-0.697-1.808-1.166-2.788-1.166H15.167V38.559
			h16.845c0.978,0,2.097-0.467,2.783-1.162l17.171-17.336V75.939z"/>
		<path d="M64.143,29.748l-2.751,2.904c4.335,4.106,6.723,9.557,6.723,15.348c0,5.792-2.388,11.242-6.723,15.348l2.751,2.905
			C69.284,61.382,72.114,54.9,72.114,48C72.114,41.099,69.283,34.617,64.143,29.748z"/>
		<path d="M72.699,20.934l-2.721,2.932C76.936,30.321,80.768,38.892,80.768,48c0,9.107-3.832,17.679-10.789,24.134l2.721,2.933
			C80.481,67.845,84.768,58.233,84.768,48C84.768,37.767,80.481,28.155,72.699,20.934z"/>
	</g>
</g>
<g id="warning" display="none">
	<g display="inline">
		<path d="M85.3,77.304L50.101,16.292c-0.466-0.806-1.263-1.288-2.133-1.288c-0.87,0-1.668,0.481-2.133,1.287l-35.2,61.015
			c-0.464,0.805-0.481,1.735-0.046,2.488c0.436,0.753,1.25,1.202,2.179,1.202h70.399c0.93,0,1.745-0.45,2.18-1.203
			C85.782,79.04,85.764,78.109,85.3,77.304z M15.43,76.996l32.537-56.397l32.537,56.397H15.43z"/>
		<circle cx="47.968" cy="68.598" r="3.005"/>
		<rect x="45.967" y="38.996" width="4" height="21.6"/>
	</g>
</g>
<g id="water" display="none">
	<path display="inline" d="M68.221,46.336c-3.472-6.698-17.548-27.887-18.144-28.784c-0.486-0.732-1.275-1.169-2.111-1.169
		c-0.833,0-1.62,0.435-2.108,1.166c-0.599,0.9-14.713,22.119-18.177,28.853c-1.668,3.245-2.514,6.75-2.514,10.417
		c0,12.571,10.228,22.8,22.8,22.8s22.8-10.229,22.8-22.8C70.768,53.173,69.887,49.548,68.221,46.336z M47.967,75.617
		c-10.366,0-18.8-8.434-18.8-18.8c0-3.024,0.697-5.913,2.072-8.588c2.78-5.405,13.149-21.205,16.727-26.618
		c3.571,5.412,13.913,21.185,16.704,26.566c1.392,2.684,2.098,5.59,2.098,8.64C66.768,67.184,58.334,75.617,47.967,75.617z"/>
</g>
<g id="wattage" display="none">
	<g display="inline">
		<polygon points="43.935,62.412 47.368,64.464 57.132,48.12 45.551,48.12 51.704,37.825 48.271,35.772 38.5,52.12 50.084,52.12 		
			"/>
		<path d="M62.922,25.707V10.755h-4v0.702h-0.003v14.25H37.417V10.755h-4v0.702h-0.003v14.25H19.967v21.742l0.007,0.748l0.01,0.013
			c0.396,13.935,11.735,25.267,25.983,26.248v10.787h4V74.457c14.227-0.979,25.552-12.279,25.979-26.187l0.02-22.563H62.922z
			 M71.959,47.457c0,12.724-10.763,23.075-23.992,23.076c-13.229-0.001-23.993-10.353-23.993-23.076l-0.007-0.748V29.707h48
			L71.959,47.457z"/>
	</g>
</g>
<g id="watthour_x5F_meter" display="none">
	<g display="inline">
		<path d="M75.505,28.025l-2.82-2.82L51.737,46.152c-1.113-0.64-2.398-1.01-3.77-1.01c-0.84,0-1.645,0.142-2.401,0.395
			c-2.259,0.756-4.048,2.543-4.803,4.803c-0.174,0.521-0.298,1.065-0.356,1.629c-0.025,0.255-0.039,0.513-0.039,0.773
			c0,4.19,3.409,7.6,7.6,7.6c0.261,0,0.519-0.013,0.772-0.039c0.565-0.057,1.11-0.182,1.633-0.356
			c2.257-0.756,4.042-2.541,4.799-4.798c0.253-0.758,0.396-1.565,0.396-2.406c0-1.372-0.371-2.658-1.011-3.771L75.505,28.025z
			 M51.567,52.742c0,1.985-1.614,3.6-3.6,3.6c-1.985,0-3.6-1.614-3.6-3.6c0-1.986,1.615-3.601,3.6-3.601
			c0.242,0,0.479,0.025,0.708,0.072c1.418,0.283,2.536,1.401,2.819,2.819C51.542,52.263,51.567,52.499,51.567,52.742z"/>
		<path d="M78.63,31.687l-0.968,0.969l-1.903,1.903c3.521,5.358,5.414,11.624,5.414,18.184c0,8.202-2.953,15.949-8.356,22.028
			l-5.339-5.339l-2.82,2.821l8.201,8.2l1.409-1.41c7.025-7.026,10.895-16.366,10.895-26.301
			C85.162,45.112,82.872,37.836,78.63,31.687z"/>
		<path d="M23.119,74.771c-5.404-6.08-8.357-13.828-8.357-22.028c0-8.87,3.454-17.208,9.726-23.48s14.611-9.726,23.479-9.726
			c6.504,0,12.773,1.875,18.178,5.419l1.908-1.907l0.969-0.97c-0.012-0.008-0.024-0.019-0.038-0.027
			c-6.201-4.255-13.469-6.504-21.017-6.504c-9.934,0-19.275,3.87-26.3,10.895c-7.025,7.025-10.895,16.366-10.895,26.301
			c0,9.934,3.869,19.274,10.894,26.301l1.41,1.41l8.201-8.2l-2.82-2.821L23.119,74.771z"/>
	</g>
</g>
<g id="web_x5F_language_x5F_change" display="none">
	<path display="inline" d="M47.967,11.6c-20.071,0-36.4,16.329-36.4,36.4c0,20.071,16.329,36.4,36.4,36.4s36.4-16.329,36.4-36.4
		C84.367,27.929,68.038,11.6,47.967,11.6z M80.326,46.4h-9.984c-0.322-11.787-4.187-22.119-9.921-28.308
		C71.656,22.788,79.702,33.634,80.326,46.4z M51.669,80.182c-0.694,0.08-1.395,0.144-2.102,0.178V49.601h17.577
		C66.714,64.807,60.193,77.325,51.669,80.182z M28.791,49.601h17.577v30.759c-0.708-0.034-1.407-0.098-2.102-0.178
		C35.742,77.325,29.221,64.807,28.791,49.601z M44.266,15.818c0.695-0.08,1.394-0.143,2.102-0.177V46.4H28.791
		C29.221,31.193,35.742,18.674,44.266,15.818z M49.567,46.4V15.641c0.707,0.034,1.407,0.098,2.102,0.177
		c8.524,2.856,15.045,15.375,15.476,30.582H49.567z M35.514,18.093c-5.736,6.188-9.599,16.521-9.922,28.307h-9.984
		C16.232,33.634,24.279,22.788,35.514,18.093z M15.608,49.601h9.984c0.323,11.787,4.186,22.118,9.922,28.308
		C24.279,73.212,16.232,62.366,15.608,49.601z M60.421,77.908c5.734-6.188,9.599-16.521,9.921-28.308h9.984
		C79.702,62.366,71.656,73.212,60.421,77.908z"/>
</g>
<g id="widget" display="none">
	<g display="inline">
		<path d="M79.968,13.2h-64c-1.543,0-2.8,1.256-2.8,2.8v64c0,1.544,1.256,2.8,2.8,2.8h64c1.544,0,2.8-1.256,2.8-2.8V16
			C82.768,14.456,81.512,13.2,79.968,13.2z M78.768,78.8h-61.6V17.2h61.6V78.8z"/>
		<path d="M61.567,46.8c6.617,0,12-5.383,12-12s-5.383-12-12-12s-12,5.383-12,12S54.95,46.8,61.567,46.8z M61.567,26
			c4.853,0,8.8,3.948,8.8,8.8c0,4.853-3.947,8.8-8.8,8.8s-8.8-3.948-8.8-8.8C52.768,29.948,56.715,26,61.567,26z"/>
		<path d="M45.567,23.985h-22.4v21.631h22.4V23.985z M42.367,42.416h-16V27.185h16V42.416z"/>
		<polygon points="63.967,51.2 60.768,51.2 60.768,60.8 51.167,60.8 51.167,64 60.768,64 60.768,73.601 63.967,73.601 63.967,64 
			73.567,64 73.567,60.8 63.967,60.8 		"/>
		<path d="M45.567,50h-22.4v22.4h22.4V50z M42.367,69.2h-16v-16h16V69.2z"/>
	</g>
</g>
<g id="wifi" display="none">
	<g display="inline">
		<path d="M51.371,65.926c-1.874-1.867-4.914-1.867-6.787,0c-0.816,0.815-1.255,1.854-1.361,2.92
			c-0.138,1.383,0.302,2.813,1.361,3.874c1.874,1.875,4.915,1.875,6.787,0c1.069-1.071,1.507-2.52,1.355-3.916
			C52.614,67.753,52.175,66.731,51.371,65.926z"/>
		<path d="M47.979,50.984c-5.966,0-11.574,2.323-15.792,6.542c-0.047,0.048-0.091,0.097-0.138,0.145l2.833,2.832
			c0.047-0.048,0.087-0.101,0.134-0.148c3.462-3.463,8.066-5.37,12.963-5.37c4.896,0,9.5,1.907,12.96,5.369
			c0.041,0.04,0.073,0.085,0.112,0.125l2.831-2.831c-0.039-0.04-0.075-0.081-0.113-0.121C59.552,53.308,53.944,50.984,47.979,50.984
			z"/>
		<path d="M84.357,36.938c-9.713-9.715-22.634-15.064-36.377-15.064c-13.746,0-26.666,5.351-36.381,15.066
			c-0.047,0.048-0.09,0.097-0.137,0.145l2.828,2.828c0.047-0.047,0.09-0.097,0.137-0.144c8.961-8.96,20.876-13.895,33.553-13.895
			c12.675,0,24.59,4.934,33.55,13.893c0.038,0.04,0.075,0.081,0.113,0.121l2.828-2.829C84.433,37.019,84.397,36.978,84.357,36.938z"
			/>
		<path d="M47.978,36.2c-9.915,0-19.237,3.86-26.249,10.868c-0.047,0.047-0.091,0.098-0.138,0.145l2.828,2.828
			c0.047-0.047,0.09-0.098,0.137-0.145c6.257-6.253,14.575-9.697,23.421-9.697c8.847,0,17.165,3.443,23.42,9.697
			c0.039,0.039,0.077,0.082,0.115,0.121l2.829-2.829c-0.04-0.04-0.075-0.082-0.116-0.121C67.215,40.06,57.893,36.2,47.978,36.2z"/>
	</g>
</g>
<g id="wifi_x5F_direct" display="none">
	<g display="inline">
		<path d="M51.606,64.798c-1.873-1.87-4.914-1.87-6.787,0c-0.816,0.815-1.255,1.854-1.361,2.92
			c-0.138,1.383,0.301,2.813,1.361,3.871c1.874,1.877,4.914,1.877,6.787,0c1.069-1.07,1.508-2.518,1.356-3.914
			C52.85,66.624,52.412,65.603,51.606,64.798z"/>
		<path d="M61.175,59.225c0.04,0.041,0.073,0.085,0.113,0.126l2.831-2.832c-0.039-0.039-0.075-0.081-0.115-0.121
			c-4.217-4.219-9.825-6.542-15.79-6.542c-5.966,0-11.573,2.323-15.792,6.542c-0.047,0.048-0.091,0.098-0.138,0.146l2.832,2.832
			c0.048-0.048,0.087-0.102,0.135-0.149c3.462-3.463,8.066-5.37,12.963-5.37C53.11,53.855,57.714,55.763,61.175,59.225z"/>
		<path d="M81.765,38.638c0.04,0.04,0.076,0.081,0.115,0.121l2.828-2.828c-0.039-0.04-0.075-0.082-0.114-0.121
			c-9.715-9.715-22.634-15.064-36.378-15.064c-13.745,0-26.666,5.351-36.381,15.066c-0.047,0.047-0.091,0.097-0.138,0.144
			l2.829,2.829c0.047-0.047,0.09-0.097,0.137-0.144c8.961-8.96,20.877-13.895,33.553-13.895
			C60.891,24.745,72.807,29.679,81.765,38.638z"/>
		<path d="M71.635,48.769c0.039,0.039,0.075,0.08,0.115,0.12l2.828-2.829c-0.039-0.04-0.076-0.081-0.115-0.121
			c-7.013-7.008-16.335-10.868-26.25-10.868c-9.915,0-19.236,3.86-26.249,10.868c-0.047,0.048-0.091,0.098-0.138,0.146l2.828,2.828
			c0.047-0.047,0.091-0.097,0.138-0.144c6.257-6.254,14.575-9.697,23.421-9.697C57.061,39.071,65.378,42.515,71.635,48.769z"/>
		<polygon points="70.679,72.307 68.412,70.047 60.243,78.244 68.219,86.204 68.415,86.4 68.611,86.204 70.676,84.134 
			66.752,80.219 85.705,80.219 85.705,76.219 66.779,76.219 		"/>
		<polygon points="78.195,72.796 86.367,64.601 78.193,56.444 75.932,58.709 79.854,62.623 60.905,62.623 60.905,66.623 
			79.831,66.623 75.93,70.537 		"/>
	</g>
</g>
<g id="wifi_x5F_disconnected" display="none">
	<g display="inline">
		<path d="M51.371,64.798c-1.873-1.87-4.914-1.87-6.787,0c-0.816,0.814-1.255,1.854-1.361,2.92
			c-0.137,1.383,0.301,2.813,1.361,3.871c1.874,1.877,4.915,1.877,6.787,0c1.069-1.07,1.508-2.519,1.357-3.914
			C52.614,66.623,52.177,65.602,51.371,64.798z"/>
		<path d="M84.359,35.809c-9.715-9.715-22.635-15.065-36.379-15.065c-5.872,0-11.589,0.984-16.974,2.86L19.901,12.499l-2.828,2.828
			l9.891,9.891c-5.651,2.53-10.855,6.084-15.364,10.593c-0.048,0.048-0.091,0.097-0.138,0.145l2.829,2.828
			c0.047-0.048,0.089-0.097,0.136-0.145c4.531-4.53,9.818-8.027,15.575-10.381l8.135,8.135c-6.146,1.678-11.781,4.921-16.409,9.546
			c-0.047,0.048-0.09,0.098-0.137,0.146l2.828,2.828c0.047-0.047,0.09-0.097,0.137-0.146c4.689-4.687,10.537-7.794,16.897-9.058
			l10.503,10.504c-1.301-0.233-2.63-0.358-3.978-0.358c-5.966,0-11.573,2.324-15.791,6.543c-0.048,0.048-0.092,0.098-0.139,0.145
			l2.833,2.833c0.047-0.048,0.086-0.102,0.134-0.15c3.462-3.462,8.065-5.37,12.962-5.37c4.896,0,9.5,1.908,12.961,5.37
			c0.04,0.041,0.073,0.085,0.113,0.126l0.021-0.021l10.304,10.305l2.828-2.828L63.901,56.501L46.507,39.106
			c0.489-0.021,0.978-0.036,1.47-0.036c8.847,0,17.165,3.444,23.422,9.697c0.039,0.041,0.076,0.082,0.114,0.122l2.829-2.829
			c-0.04-0.04-0.075-0.082-0.115-0.121C67.215,38.93,57.894,35.07,47.978,35.07c-1.737,0-3.455,0.126-5.147,0.359l-8.656-8.656
			c4.419-1.336,9.06-2.029,13.806-2.029c12.675,0,24.591,4.935,33.55,13.893c0.04,0.039,0.075,0.081,0.114,0.12l2.828-2.828
			C84.434,35.89,84.397,35.849,84.359,35.809z"/>
	</g>
</g>
<g id="wifi_x5F_error" display="none">
	<g display="inline">
		<circle cx="80.301" cy="81.234" r="3.6"/>
		<rect x="78.118" y="51.338" width="4" height="19.882"/>
		<path d="M51.371,64.8c-1.874-1.871-4.915-1.871-6.787,0c-0.816,0.814-1.255,1.853-1.361,2.918
			c-0.137,1.383,0.302,2.813,1.361,3.872c1.873,1.875,4.914,1.875,6.785,0c1.071-1.07,1.509-2.519,1.358-3.914
			C52.614,66.625,52.177,65.604,51.371,64.8z"/>
		<path d="M47.978,49.856c-5.966,0-11.573,2.323-15.791,6.542c-0.047,0.048-0.091,0.098-0.138,0.146l2.832,2.832
			c0.047-0.049,0.087-0.102,0.135-0.149c3.462-3.464,8.065-5.37,12.962-5.37c4.896,0,9.499,1.906,12.961,5.369
			c0.04,0.041,0.073,0.085,0.113,0.126l2.831-2.831c-0.039-0.04-0.075-0.082-0.115-0.122C59.551,52.18,53.942,49.856,47.978,49.856z
			"/>
		<path d="M81.53,38.638c0.038,0.039,0.075,0.081,0.113,0.121l2.829-2.828c-0.039-0.04-0.075-0.082-0.113-0.121
			c-9.715-9.715-22.635-15.064-36.379-15.064c-13.746,0-26.666,5.351-36.381,15.066c-0.047,0.048-0.09,0.097-0.137,0.145
			l2.828,2.828c0.047-0.047,0.09-0.097,0.137-0.144c8.96-8.96,20.875-13.895,33.553-13.895C60.655,24.745,72.571,29.68,81.53,38.638
			z"/>
		<path d="M47.977,35.071c-9.915,0-19.236,3.86-26.248,10.869c-0.048,0.047-0.091,0.098-0.139,0.145l2.829,2.828
			c0.047-0.047,0.091-0.097,0.138-0.145c6.256-6.254,14.573-9.697,23.419-9.697c8.847,0,17.166,3.443,23.423,9.697
			c0.039,0.039,0.076,0.08,0.114,0.12l2.829-2.829c-0.04-0.04-0.075-0.081-0.115-0.121C67.215,38.931,57.892,35.071,47.977,35.071z"
			/>
	</g>
</g>
<g id="wifi_x5F_in_x5F_range" display="none">
	<g display="inline">
		<circle cx="78.786" cy="82.034" r="3.2"/>
		<path d="M78.062,54.23c-2.243,0-4.353,0.873-5.937,2.455c-1.589,1.581-2.464,3.688-2.464,5.931v0.925h4v-0.925
			c0-1.172,0.456-2.271,1.288-3.099c0.83-0.83,1.937-1.287,3.112-1.287c2.426,0,4.399,1.967,4.399,4.386
			c0,1.092-0.4,2.125-1.132,2.932l-0.216,0.201c-0.109,0.107-0.246,0.229-0.4,0.368c-1.298,1.17-3.999,3.605-3.999,7.997v0.524
			h3.999v-0.524c0-2.611,1.549-4.008,2.679-5.025c0.127-0.115,0.245-0.223,0.352-0.321L84,68.543
			c1.334-1.333,2.155-3.033,2.387-4.868V61.56C85.863,57.434,82.334,54.23,78.062,54.23z"/>
		<path d="M51.402,64.798c-1.873-1.869-4.914-1.869-6.787,0c-0.816,0.815-1.255,1.854-1.361,2.92
			c-0.137,1.383,0.302,2.813,1.361,3.872c1.874,1.877,4.914,1.877,6.787,0c1.07-1.069,1.508-2.518,1.357-3.914
			C52.646,66.625,52.208,65.603,51.402,64.798z"/>
		<path d="M48.01,49.856c-5.965,0-11.573,2.324-15.792,6.543c-0.047,0.048-0.09,0.097-0.137,0.146l2.832,2.832
			c0.047-0.049,0.087-0.102,0.134-0.149c3.462-3.463,8.065-5.371,12.962-5.371c4.896,0,9.5,1.908,12.961,5.37
			c0.039,0.04,0.073,0.084,0.112,0.125l2.831-2.832c-0.038-0.039-0.075-0.081-0.114-0.12C59.583,52.181,53.976,49.856,48.01,49.856z
			"/>
		<path d="M81.562,38.638c0.039,0.039,0.075,0.082,0.114,0.121l2.828-2.828c-0.039-0.04-0.074-0.081-0.114-0.121
			c-9.715-9.715-22.634-15.064-36.378-15.064c-13.745,0-26.666,5.351-36.381,15.066c-0.048,0.048-0.091,0.097-0.138,0.145
			l2.829,2.828c0.047-0.047,0.09-0.097,0.137-0.144c8.961-8.96,20.876-13.895,33.553-13.895
			C60.688,24.745,72.603,29.68,81.562,38.638z"/>
		<path d="M71.431,48.769c0.039,0.04,0.076,0.082,0.115,0.121l2.829-2.829c-0.04-0.04-0.076-0.082-0.116-0.121
			c-7.013-7.009-16.334-10.869-26.25-10.869c-9.914,0-19.236,3.86-26.249,10.869c-0.047,0.048-0.091,0.098-0.138,0.145l2.829,2.828
			c0.047-0.047,0.09-0.097,0.137-0.145c6.256-6.254,14.574-9.697,23.42-9.697C56.855,39.071,65.174,42.515,71.431,48.769z"/>
	</g>
</g>
<g id="wifi_x5F_lock" display="none">
	<g display="inline">
		<path d="M83.567,67.193h-0.342v-0.907c0-4.951-3.975-8.979-8.859-8.979c-4.883,0-8.856,4.028-8.856,8.979v0.907h-0.343
			c-1.543,0-2.8,1.256-2.8,2.8v13.516c0,1.298,0.894,2.385,2.096,2.698h19.81c1.201-0.313,2.095-1.4,2.095-2.698V69.993
			C86.367,68.449,85.111,67.193,83.567,67.193z M69.51,66.286c0-2.745,2.179-4.979,4.856-4.979c2.679,0,4.858,2.233,4.858,4.979
			v0.907H69.51V66.286z M82.367,82.309h-16V71.193h16V82.309z"/>
		<path d="M51.385,64.803c-1.874-1.871-4.914-1.871-6.787,0c-0.817,0.813-1.256,1.853-1.361,2.918
			c-0.137,1.383,0.302,2.813,1.361,3.872c1.873,1.877,4.914,1.877,6.787,0c1.069-1.07,1.508-2.519,1.357-3.914
			C52.628,66.628,52.189,65.605,51.385,64.803z"/>
		<path d="M63.782,56.4c-4.217-4.219-9.825-6.542-15.79-6.542c-5.965,0-11.573,2.323-15.791,6.542
			c-0.048,0.049-0.092,0.099-0.139,0.146l2.833,2.833c0.047-0.049,0.086-0.102,0.134-0.15c3.462-3.462,8.066-5.37,12.962-5.37
			s9.499,1.908,12.961,5.37c0.04,0.041,0.074,0.085,0.113,0.125l2.83-2.831C63.858,56.482,63.822,56.441,63.782,56.4z"/>
		<path d="M81.543,38.641c0.04,0.039,0.076,0.081,0.115,0.121l2.828-2.828c-0.039-0.04-0.075-0.081-0.114-0.12
			c-9.715-9.715-22.635-15.065-36.378-15.065c-13.746,0-26.666,5.351-36.381,15.066c-0.047,0.047-0.091,0.097-0.138,0.144
			l2.829,2.829c0.047-0.048,0.09-0.097,0.137-0.145c8.961-8.96,20.876-13.895,33.553-13.895
			C60.669,24.749,72.585,29.683,81.543,38.641z"/>
		<path d="M71.413,48.771c0.039,0.04,0.075,0.081,0.114,0.121l2.829-2.829c-0.04-0.04-0.075-0.082-0.115-0.122
			c-7.013-7.008-16.335-10.868-26.25-10.868c-9.914,0-19.236,3.86-26.249,10.868c-0.047,0.048-0.09,0.098-0.137,0.146l2.828,2.828
			c0.047-0.047,0.091-0.097,0.138-0.145c6.256-6.253,14.574-9.697,23.42-9.697C56.838,39.074,65.155,42.518,71.413,48.771z"/>
	</g>
</g>
<g id="wifi_x5F_setting" display="none">
	<g display="inline">
		<path d="M83.53,70.748l2.172-2.093c0.316-0.305,0.54-0.688,0.666-1.101v-1.566c-0.057-0.187-0.127-0.37-0.228-0.541l-2.367-4.025
			c-0.578-0.979-1.892-1.508-2.977-1.21l-2.941,0.8c-0.01,0.003-0.063,0.009-0.112,0.006c-0.171-0.135-0.411-0.359-0.529-0.5
			l-0.715-2.714c-0.299-1.118-1.396-1.961-2.551-1.961h-4.76c-1.158,0-2.255,0.846-2.55,1.965l-0.758,2.87
			c-0.007,0.021-0.025,0.056-0.045,0.087c-0.203,0.077-0.528,0.175-0.709,0.204l-2.786-0.758c-1.1-0.3-2.4,0.23-2.979,1.211
			l-2.37,4.027c-0.593,1.011-0.404,2.389,0.44,3.206l2.169,2.089c0.015,0.015,0.032,0.044,0.047,0.07v0.462
			c-0.014,0.027-0.032,0.057-0.043,0.068l-2.17,2.092c-0.846,0.813-1.036,2.191-0.44,3.209l2.367,4.025
			c0.578,0.979,1.889,1.506,2.977,1.21l2.941-0.8c0.01-0.003,0.066-0.012,0.115-0.006c0.17,0.134,0.409,0.356,0.526,0.496
			l0.716,2.709c0.297,1.121,1.394,1.966,2.552,1.966h4.758c1.158,0,2.255-0.845,2.552-1.966l0.758-2.868
			c0.007-0.021,0.025-0.056,0.044-0.086c0.204-0.077,0.527-0.175,0.708-0.204l2.785,0.759c0.215,0.059,0.438,0.088,0.665,0.088
			c0.939,0,1.848-0.509,2.315-1.299l2.367-4.022c0.101-0.172,0.171-0.355,0.228-0.544v-1.567c-0.127-0.413-0.35-0.795-0.666-1.099
			l-2.167-2.087c-0.013-0.016-0.031-0.044-0.047-0.072v-0.465C83.502,70.786,83.52,70.76,83.53,70.748z M81.31,73.649l1.839,1.771
			l-1.918,3.262l-2.542-0.691c-0.191-0.052-0.393-0.077-0.612-0.077c-0.859,0-1.969,0.417-2.35,0.61
			c-0.813,0.417-1.37,1.337-1.563,2.065l-0.649,2.456H69.62l-0.647-2.451c-0.318-1.219-1.957-2.292-1.974-2.304
			c-0.581-0.363-1.271-0.417-1.633-0.417c-0.323,0-0.633,0.04-0.922,0.118l-2.54,0.69l-1.918-3.262l1.84-1.773
			c0.54-0.521,1.056-1.438,1.021-2.341V70.78c0.034-0.901-0.482-1.817-1.022-2.338l-1.841-1.771l1.92-3.263l2.542,0.691
			c0.191,0.052,0.393,0.077,0.612,0.077c0.862,0,1.972-0.417,2.347-0.609c0.814-0.415,1.374-1.336,1.567-2.066l0.649-2.458h3.894
			l0.649,2.461c0.323,1.215,1.953,2.283,1.968,2.293c0.582,0.367,1.277,0.422,1.639,0.422c0.322,0,0.632-0.04,0.919-0.118l2.54-0.69
			l1.918,3.262l-1.84,1.773c-0.54,0.521-1.055,1.437-1.021,2.338v0.522C80.254,72.209,80.769,73.127,81.31,73.649z"/>
		<path d="M71.567,64.498c-3.61,0-6.548,2.937-6.548,6.546c0,3.613,2.938,6.551,6.548,6.551s6.548-2.938,6.548-6.551
			C78.115,67.435,75.178,64.498,71.567,64.498z M71.567,74.396c-1.847,0-3.348-1.503-3.348-3.352c0-1.845,1.501-3.347,3.348-3.347
			s3.348,1.502,3.348,3.347C74.915,72.893,73.414,74.396,71.567,74.396z"/>
		<path d="M51.384,64.801c-1.873-1.868-4.914-1.868-6.787,0c-0.816,0.815-1.255,1.854-1.361,2.92
			c-0.138,1.383,0.301,2.813,1.361,3.873c1.874,1.876,4.914,1.876,6.787,0c1.069-1.071,1.508-2.519,1.356-3.915
			C52.627,66.628,52.189,65.606,51.384,64.801z"/>
		<path d="M60.952,59.229c0.04,0.04,0.073,0.084,0.113,0.124l2.831-2.831c-0.039-0.04-0.075-0.081-0.114-0.12
			c-4.218-4.219-9.826-6.542-15.791-6.542c-5.966,0-11.573,2.323-15.792,6.542c-0.047,0.047-0.091,0.097-0.138,0.145l2.833,2.832
			c0.047-0.048,0.086-0.101,0.134-0.148c3.463-3.463,8.066-5.37,12.963-5.37S57.491,55.768,60.952,59.229z"/>
		<path d="M81.542,38.642c0.04,0.039,0.075,0.081,0.114,0.12l2.828-2.829c-0.039-0.039-0.074-0.08-0.113-0.119
			c-9.715-9.715-22.634-15.065-36.378-15.065c-13.745,0-26.666,5.351-36.381,15.067c-0.047,0.047-0.09,0.096-0.136,0.144
			l2.829,2.829c0.047-0.047,0.089-0.097,0.137-0.145c8.96-8.96,20.876-13.895,33.552-13.895
			C60.668,24.749,72.584,29.683,81.542,38.642z"/>
		<path d="M71.412,48.771c0.039,0.039,0.075,0.081,0.115,0.121l2.827-2.829c-0.038-0.04-0.075-0.081-0.114-0.121
			c-7.013-7.009-16.335-10.868-26.25-10.868c-9.915,0-19.236,3.859-26.249,10.868c-0.047,0.047-0.091,0.097-0.138,0.145l2.828,2.828
			c0.047-0.047,0.091-0.097,0.138-0.144c6.257-6.253,14.575-9.697,23.421-9.697C56.838,39.075,65.155,42.519,71.412,48.771z"/>
	</g>
</g>
<g id="wifi_x5F_wps" display="none">
	<g display="inline">
		<path d="M65.654,22.647c-0.234-0.235-0.486-0.475-0.722-0.694l4.949-4.929c0.321-0.318,1.078-1.161,1.184-2.11
			c0.064-0.587-0.129-1.181-0.528-1.626c-0.776-0.865-2.17-0.932-2.578-0.932l-20.275,0.002c-1.233,0-1.663,0.194-1.808,0.26
			c-0.937,0.414-1.392,1.375-1.392,2.94v20.178c0,0.562,0.086,1.61,0.648,2.31c0.398,0.502,1,0.79,1.652,0.79
			c1.103,0,2.084-0.889,2.362-1.165l5.437-5.414c0.729,0.592,1.836,1.516,2.587,2.269c8.731,8.73,11.688,21.428,7.715,33.132
			c-0.252,0.734-0.135,1.547,0.313,2.173c0.452,0.633,1.186,1.011,1.962,1.012l0,0c0.754,0,1.448-0.351,1.909-0.963
			C79.758,55.589,78.29,35.282,65.654,22.647z M59.999,31.698c-1.381-1.382-3.618-3.123-3.711-3.195
			c-0.501-0.39-1.134-0.605-1.781-0.605c-0.769,0-1.518,0.304-2.058,0.838l-3.965,3.95V16.358l16.399-0.001l-3.708,3.693
			c-0.541,0.538-0.837,1.279-0.813,2.035c0.024,0.757,0.368,1.479,0.944,1.981c0.009,0.008,0.861,0.751,1.52,1.409
			c8.748,8.747,11.479,21.627,7.778,32.898C70.925,48.549,67.218,38.917,59.999,31.698z"/>
		<path d="M49.116,57.143l-0.222,0.012c-0.908,0.097-1.709,0.778-2.105,1.172l-5.438,5.415c-0.729-0.591-1.834-1.515-2.586-2.268
			c-8.732-8.731-11.687-21.428-7.711-33.139c0.249-0.734,0.13-1.545-0.319-2.169c-0.452-0.631-1.185-1.008-1.959-1.008
			c-0.756,0-1.452,0.351-1.908,0.962c-10.69,14.293-9.224,34.599,3.413,47.232c0.234,0.234,0.486,0.475,0.722,0.694l-4.952,4.931
			c-0.399,0.398-1.083,1.201-1.182,2.112c-0.063,0.588,0.131,1.179,0.531,1.624c0.776,0.862,2.169,0.93,2.578,0.93h0l20.273-0.002
			c1.231,0,1.661-0.194,1.811-0.261c0.935-0.415,1.39-1.376,1.39-2.939V60.263C51.451,58.396,50.513,57.143,49.116,57.143z
			 M47.451,79.642l-16.4,0.002l3.71-3.693c0.541-0.538,0.836-1.28,0.812-2.037s-0.37-1.479-0.945-1.979
			c-0.007-0.008-0.861-0.753-1.519-1.41c-8.747-8.745-11.478-21.62-7.778-32.893c-0.32,9.824,3.387,19.453,10.605,26.669
			c1.38,1.381,3.617,3.124,3.711,3.196c1.098,0.854,2.855,0.745,3.838-0.234l3.967-3.949V79.642z"/>
	</g>
</g>
<g id="window_x5F_manager" display="none">
	<path display="inline" d="M83.367,19.6h-59.2c-1.544,0-2.8,1.256-2.8,2.8v10h-8.8c-1.543,0-2.8,1.256-2.8,2.8v38.401
		c0,1.543,1.256,2.799,2.8,2.799h58.4c1.544,0,2.8-1.256,2.8-2.799V63.6h9.6c1.544,0,2.8-1.256,2.8-2.8V22.4
		C86.167,20.856,84.911,19.6,83.367,19.6z M69.768,72.4h-56v-36h56V72.4z M82.168,59.6h-8.4V35.2c0-1.543-1.256-2.8-2.8-2.8h-45.6
		v-8.8h56.8V59.6z"/>
</g>
<g id="zoom_x5F_in" display="none">
	<g display="inline">
		<path d="M83.675,80.879L63.458,60.663c4.479-5.135,7.202-11.838,7.202-19.17c0-16.101-13.101-29.2-29.203-29.2
			c-16.1,0-29.197,13.099-29.197,29.2c0,16.101,13.098,29.2,29.197,29.2c7.333,0,14.039-2.722,19.172-7.202l20.217,20.217
			L83.675,80.879z M16.26,41.493c0-13.895,11.303-25.2,25.197-25.2c13.896,0,25.203,11.305,25.203,25.2S55.354,66.693,41.458,66.693
			C27.563,66.693,16.26,55.388,16.26,41.493z"/>
		<polygon points="43.46,25.093 39.46,25.093 39.46,39.493 25.061,39.493 25.061,43.493 39.46,43.493 39.46,57.893 43.46,57.893 
			43.46,43.493 57.86,43.493 57.86,39.493 43.46,39.493 		"/>
	</g>
</g>
<g id="zoom_x5F_out" display="none">
	<g display="inline">
		<path d="M84.074,80.879L63.43,60.233c4.259-5.075,6.83-11.612,6.83-18.741c0-16.101-13.1-29.2-29.203-29.2
			c-16.099,0-29.197,13.099-29.197,29.2c0,16.101,13.098,29.2,29.197,29.2c7.537,0,14.416-2.869,19.601-7.573l20.588,20.588
			L84.074,80.879z M15.86,41.493c0-13.895,11.303-25.2,25.197-25.2c13.897,0,25.204,11.305,25.204,25.2S54.954,66.693,41.057,66.693
			C27.164,66.693,15.86,55.388,15.86,41.493z"/>
		<rect x="25.46" y="39.493" width="31.2" height="4"/>
	</g>
</g>
</svg>
